<?xml version="1.0" standalone="no"?>
<!-- Generator: Paintmaps.com , Online SVG vector map maker -->
<svg xmlns="http://www.w3.org/2000/svg" version="1.1" baseProfile="full" width="800" height="533" style="background-color:#e0f2f1">
<rect width="100%" height="100%" fill="#e0f2f1"/>
<path d="M 230.9327 361.5433 L 232.065 361.4714 L 232.0381 360.8244 L 230.4205 360.6806 L 230.8518 359.6741 L 230.07 358.5238 L 230.8249 358.0205 L 231.6606 359.5662 L 233.1434 357.1219 L 234.9498 357.4094 L 235.0306 356.6186 L 233.7635 355.3605 L 233.6018 354.354 L 235.3002 352.1612 L 236.8639 351.5861 L 235.1654 350.5077 L 234.6802 349.5371 L 235.7855 348.8901 L 237.2953 349.609 L 237.1066 348.1352 L 238.7242 347.3444 L 238.185 346.0862 L 238.805 345.6549 L 238.6433 344.0732 L 241.2584 346.0143 L 241.7437 345.4392 L 241.4471 344.5765 L 239.5599 342.9589 L 238.859 341.3413 L 239.0477 340.6583 L 240.0452 340.4426 L 240.2878 339.3282 L 239.3173 338.5374 L 238.805 336.6322 L 240.153 335.9133 L 243.6309 336.2009 L 245.9225 335.0146 L 246.1651 333.9722 L 245.1946 332.067 L 245.0059 330.5213 L 248.4298 324.2306 L 249.9665 325.7404 L 251.9615 325.9201 L 252.8782 325.4887 L 253.4713 323.7633 L 254.1723 323.3319 L 252.7434 318.0118 L 248.942 313.6982 L 249.1307 308.6297 L 248.4837 306.9043 L 248.4567 305.3586 L 249.2386 303.3096 L 250.1283 302.6985 L 249.0229 301.728 L 251.2875 301.6201 L 251.5032 302.6266 L 252.339 303.3815 L 255.0619 304.2083 L 254.9811 302.8064 L 254.3071 302.2312 L 254.8193 301.5842 L 256.3291 304.2802 L 257.4614 303.705 L 257.8388 301.6561 L 258.7824 300.9731 L 258.9442 300.0744 L 261.748 300.7574 L 261.074 299.1758 L 261.4515 298.6725 L 262.1794 298.8522 L 262.0446 298.0973 L 260.8044 298.0614 L 260.0765 297.2346 L 260.1574 296.3719 L 261.4515 297.0908 L 263.9588 296.1203 L 263.8779 296.7314 L 265.4685 298.1692 L 265.172 299.2117 L 265.4685 301.045 L 266.4391 300.2901 L 267.4096 300.7215 L 269.0542 300.2542 L 269.9439 300.7574 L 270.6449 303.8129 L 271.1571 303.9926 L 269.89 304.7115 L 269.8091 305.4305 L 270.8336 305.071 L 271.7502 306.7605 L 273.6644 307.9827 L 276.2525 307.7311 L 277.4118 306.401 L 278.1397 306.9043 L 279.299 306.5089 L 279.1642 303.4534 L 280.1887 302.9502 L 280.1078 302.0155 L 280.8088 302.0515 L 281.8333 300.6855 L 283.5587 300.2542 L 284.0979 298.313 L 285.2033 298.313 L 285.419 297.1268 L 286.7939 297.0189 L 287.5488 293.4243 L 287.3062 291.4832 L 289.8943 289.0388 L 292.6712 289.1107 L 294.3966 290.1172 L 296.203 288.2479 L 300.0043 287.529 L 301.3254 285.2284 L 305.0189 284.2938 L 309.0899 287.0258 L 310.8153 286.0552 L 311.5163 286.5225 L 311.6241 285.3003 L 312.0016 284.9768 L 313.3765 285.6598 L 314.401 284.3298 L 316.0725 286.4866 L 317.5553 286.9539 L 317.744 288.3198 L 318.8494 288.212 L 318.8224 286.8101 L 319.3886 286.5585 L 319.3347 285.3722 L 319.8739 284.5454 L 321.4106 283.4311 L 323.0552 283.7546 L 324.0527 283.2873 L 324.3223 281.7775 L 323.9179 279.8005 L 324.6728 277.6437 L 324.1066 276.1339 L 325.5894 274.3366 L 324.8885 273.8693 L 326.8026 271.1014 L 327.5845 270.7778 L 328.6898 271.3889 L 329.8761 270.6341 L 331.278 271.6765 L 332.3564 270.5622 L 330.8466 269.8432 L 331.0353 269.1962 L 330.5231 268.8727 L 329.8761 266.4283 L 331.8441 265.1702 L 332.0598 262.1866 L 331.4397 261.1441 L 332.6799 260.8206 L 333.1113 259.9219 L 335.2681 259.4546 L 334.0279 259.0233 L 334.648 257.2259 L 333.3809 257.837 L 330.4961 257.873 L 330.4692 257.19 L 332.5451 257.154 L 333.1382 254.8534 L 333.8661 254.1705 L 335.3489 253.9548 L 335.1872 252.5888 L 335.6725 252.481 L 333.8931 251.3666 L 333.8661 250.0725 L 332.7608 249.4974 L 330.3074 248.6706 L 327.3418 248.9582 L 326.8565 247.736 L 323.9718 247.2687 L 323.5944 246.5138 L 324.1336 244.4289 L 322.9743 243.0629 L 321.1949 243.674 L 319.9548 245.1119 L 319.146 244.2492 L 317.07 245.1838 L 314.9132 243.9616 L 313.9427 244.0335 L 312.8104 242.8113 L 310.5727 241.7329 L 305.8816 242.6316 L 303.1317 241.5532 L 299.2495 242.6316 L 295.8794 241.2656 L 294.6393 240.1153 L 293.8574 240.1512 L 293.7226 240.9061 L 290.11 241.3375 L 289.9752 240.5826 L 291.5658 238.0304 L 289.1125 239.6839 L 288.8698 241.6251 L 282.7769 240.1153 L 281.8063 239.1807 L 281.5367 237.5271 L 280.3235 236.5566 L 277.7623 237.0958 L 276.1177 238.6774 L 273.5296 237.2396 L 269.4316 236.0174 L 267.2209 234.1481 L 266.3312 232.6743 L 266.4391 230.3378 L 265.846 228.6842 L 265.792 226.4196 L 264.498 223.4001 L 262.9073 222.7171 L 259.9956 223.2563 L 256.5717 225.0896 L 255.4394 224.0471 L 255.2776 221.8903 L 255.8438 221.7825 L 255.5472 214.018 L 255.1428 212.9036 L 254.3071 212.2206 L 252.4738 213.299 L 252.339 212.8677 L 253.2287 210.7828 L 251.7189 206.0019 L 252.2851 202.0837 L 248.8881 201.6882 L 249.5351 198.7406 L 249.4543 196.2603 L 254.7923 196.1884 L 255.6551 196.6917 L 256.1134 194.427 L 255.6281 193.097 L 258.5937 190.0775 L 261.128 186.2671 L 259.0251 185.8357 L 258.8364 184.5057 L 257.3805 182.8881 L 257.3266 182.1332 L 257.9736 181.1986 L 257.758 180.3359 L 258.405 179.2575 L 258.2702 176.7772 L 255.7359 173.2184 L 254.3071 169.5878 L 253.3635 169.0846 L 252.9321 168.114 L 252.9051 166.9637 L 253.3904 166.6402 L 253.0669 165.7775 L 253.3635 164.5193 L 252.7973 163.5847 L 253.013 162.9377 L 252.5277 161.4279 L 254.2531 160.4214 L 253.9027 158.7319 L 254.6845 157.1503 L 254.0644 156.0719 L 254.9811 152.0458 L 254.5227 151.7583 L 254.6575 150.5001 L 255.3315 148.7387 L 257.1648 147.1211 L 254.9002 143.8859 L 252.9591 144.0657 L 250.8831 143.3467 L 250.2091 141.6572 L 251.0988 140.0396 L 251.8267 132.7424 L 251.4493 131.8078 L 252.5277 130.6216 L 252.5547 129.2197 L 254.1723 127.5302 L 254.1453 125.2296 L 254.8732 123.1806 L 254.8463 120.0173 L 255.1967 119.3703 L 255.035 115.6318 L 255.6011 115.3802 L 255.6551 113.7985 L 256.0055 113.2234 L 258.2432 112.9358 L 259.106 113.5109 L 259.9687 115.3802 L 262.7725 115.1285 L 262.3412 111.426 L 263.4196 108.4784 L 262.7186 107.2922 L 262.7725 106.2857 L 264.0396 104.5962 L 265.6303 104.6681 L 267.3288 103.2661 L 266.6278 99.959 L 266.1425 99.3839 L 264.8215 101.325 L 261.6132 100.4982 L 260.6696 99.4198 L 256.7874 98.0898 L 254.7654 99.8512 L 251.5571 104.6321 L 247.9984 106.2497 L 244.3858 105.3151 L 243.3343 105.9621 L 241.9054 104.7759 L 240.4496 104.7759 L 239.4521 103.6975 L 235.8934 102.5472 L 237.511 100.1028 L 237.4031 99.0604 L 238.5894 98.0179 L 238.5354 95.8971 L 238.2928 94.1716 L 236.2708 89.8939 L 234.5723 84.1425 L 233.6557 83.6392 L 233.1434 81.0151 L 233.0895 74.2212 L 232.6582 71.9565 L 234.6532 64.4796 L 234.7341 62.7901 L 234.1949 62.2509 L 234.2758 59.5909 L 233.1974 59.4471 L 233.3322 58.6922 L 232.2807 59.7347 L 227.1853 57.9373 L 224.7319 56.3197 L 223.7344 54.81 L 218.4502 53.3002 L 218.6389 55.0616 L 220.2026 55.5289 L 220.4722 56.6432 L 219.7173 59.5549 L 220.634 59.7706 L 221.5776 59.1595 L 222.656 60.4895 L 222.1437 59.6268 L 222.2785 58.836 L 223.0873 60.3817 L 223.1143 62.5744 L 222.0629 69.3684 L 221.308 70.6265 L 219.3669 71.7049 L 213.22 72.7833 L 211.7102 75.5512 L 206.2912 80.7635 L 207.5853 81.8059 L 208.9333 85.1849 L 210.9823 93.7762 L 211.7911 93.9919 L 211.6293 96.3284 L 212.519 101.4688 L 215.5924 107.8673 L 214.7567 110.8509 L 213.5435 111.9652 L 214.0827 118.7232 L 213.5974 123.8636 L 211.4676 124.8342 L 203.8109 124.0793 L 200.6027 125.625 L 199.3355 130.2981 L 196.6935 135.2587 L 193.8627 143.2748 L 193.7009 145.7552 L 192.8651 147.8401 L 189.4682 154.2026 L 187.4462 157.0424 L 187.7158 157.9051 L 186.4217 165.418 L 186.907 165.7415 L 186.88 170.7022 L 185.5859 170.7022 L 185.2085 173.9374 L 183.8605 176.4537 L 186.0982 180.0483 L 187.7697 180.8032 L 187.6888 183.5711 L 188.3628 185.656 L 188.5246 190.8683 L 186.3678 192.0186 L 186.3947 193.4564 L 189.8726 205.9659 L 189.9804 213.3709 L 193.0269 217.7205 L 194.0783 221.1354 L 194.5636 228.3248 L 193.2965 231.7397 L 192.973 234.5435 L 193.9975 238.3898 L 195.9386 239.1447 L 196.6665 243.7819 L 194.5097 243.71 L 194.4827 244.7524 L 193.8896 245.04 L 193.3235 246.8373 L 189.8456 249.066 L 191.5441 252.6607 L 191.9215 257.3697 L 194.7793 263.948 L 195.3185 268.1178 L 196.8552 271.2451 L 203.11 278.2188 L 208.5828 281.3102 L 206.8304 285.3722 L 204.5388 288.895 L 206.48 289.7218 L 208.1515 291.3034 L 209.2568 291.4472 L 209.85 293.0648 L 209.796 294.7184 L 211.3597 291.9505 L 211.0362 290.261 L 211.8989 289.7937 L 216.0508 292.5256 L 219.7443 290.4766 L 222.3055 293.8916 L 222.7908 298.3849 L 222.1707 300.2542 L 221.1732 301.1169 L 224.3814 302.3031 L 224.9206 304.0286 L 223.977 306.7965 L 223.1143 307.1559 L 222.8986 308.0546 L 222.0898 307.4075 L 220.0139 307.803 L 220.2565 310.7146 L 221.308 311.1101 L 221.6854 313.0152 L 222.629 313.5185 L 222.8717 315.2799 L 224.3275 314.7407 L 225.352 315.4956 L 224.9745 317.1491 L 224.1118 317.9399 L 224.678 319.4856 L 225.4598 320.1327 L 224.7319 320.2765 L 224.7049 321.5706 L 226.5382 321.8941 L 227.1583 323.8711 L 225.2711 326.4234 L 222.8717 327.7534 L 223.4648 330.1618 L 222.8717 338.0342 L 223.33 343.3543 L 218.1267 344.2529 L 217.938 347.6679 L 219.3129 350.4358 L 219.8791 352.9161 L 222.1707 355.7918 L 222.8717 360.0695 L 224.4623 361.4714 L 224.9476 364.0596 L 230.4474 364.6347 L 230.0161 362.406 L 230.9327 361.5433 Z" fill="#000" fill-opacity="1" stroke="#000" stroke-width="0" paint-order="fill" stroke-opacity="1" stroke-dasharray="" stroke-linecap="butt" stroke-linejoin="miter" stroke-miterlimit="10" clip-path="none" style="filter: url(#f1)"/>
<path d="M 439.0642 478.4061 L 439.7921 477.0401 L 445.265 473.0141 L 447.7184 472.5827 L 449.0664 471.7559 L 451.7624 472.4749 L 453.4339 474.2722 L 456.3456 475.5663 L 456.5613 475.1349 L 456.8039 471.5403 L 454.6741 467.8018 L 454.7819 462.302 L 453.9192 457.5929 L 449.9022 447.9233 L 449.2012 446.7011 L 448.2576 446.8449 L 447.8802 446.3776 L 448.0958 445.2273 L 449.5247 443.5018 L 450.2526 440.9496 L 451.6546 439.4398 L 452.5712 433.5805 L 453.5687 432.8257 L 454.4045 429.6623 L 453.8922 427.5055 L 454.6202 425.5644 L 454.701 423.7671 L 455.5368 422.5808 L 455.1863 421.2149 L 455.4829 418.6986 L 453.1643 415.6072 L 453.8114 415.1758 L 453.8383 414.1334 L 452.8947 413.4863 L 452.1129 411.9047 L 448.0419 411.0419 L 447.0174 409.9995 L 444.5102 409.3524 L 442.7577 407.9146 L 442.2725 409.1008 L 441.4637 408.0224 L 439.6573 407.2316 L 438.8485 404.4996 L 437.3657 403.4572 L 437.4197 402.1272 L 436.4491 400.1501 L 436.9344 398.7482 L 436.7187 397.0587 L 435.9908 395.0097 L 438.3093 393.3202 L 438.525 391.0196 L 439.4956 390.6961 L 439.873 389.6896 L 441.4906 389.1863 L 442.0837 389.8693 L 444.2136 388.8988 L 447.3679 390.3007 L 447.5566 391.6667 L 449.2012 392.7091 L 451.5198 396.1241 L 453.2991 395.4051 L 452.9756 397.3822 L 454.1618 397.4541 L 456.076 396.5554 L 456.8848 397.9214 L 458.125 397.6338 L 458.799 398.1371 L 458.8529 399.0717 L 459.8235 399.4671 L 460.0931 400.4017 L 464.1371 400.4377 L 464.6493 400.1141 L 464.9728 397.3822 L 464.1101 395.2973 L 465.3233 395.0097 L 466.0782 392.7091 L 465.0537 391.3072 L 465.4851 390.8039 L 464.9459 390.1928 L 465.3503 389.5458 L 464.9189 389.1504 L 465.4851 388.8988 L 465.1346 388.3955 L 465.6468 388.3236 L 465.2155 387.7485 L 466.3478 387.3531 L 466.7252 385.34 L 469.3134 384.4414 L 469.3403 383.5427 L 470.904 382.2127 L 471.3893 383.0754 L 471.5511 385.376 L 471.2545 388.5033 L 472.3868 388.4674 L 472.7373 390.5164 L 473.7618 390.6961 L 474.2201 391.6667 L 474.5976 396.1241 L 475.9186 398.9998 L 476.1343 397.7776 L 477.9136 397.0227 L 478.4798 394.794 L 479.7469 393.5718 L 479.6121 392.2418 L 480.2592 392.0621 L 481.3645 389.1144 L 481.5532 385.0884 L 484.3841 387.4249 L 484.8424 387.1733 L 484.5997 386.742 L 485.5433 384.01 L 485.8399 384.6211 L 488.0506 384.657 L 489.2099 385.376 L 490.8545 385.4479 L 491.4206 384.8008 L 493.9009 385.2681 L 494.3862 385.8792 L 495.4107 385.6995 L 495.4916 383.1473 L 494.9254 381.961 L 495.3837 381.314 L 496.3273 381.6735 L 496.7587 378.6899 L 498.3763 377.3599 L 497.4327 374.9514 L 498.1067 371.896 L 498.9694 372.3992 L 498.7268 374.1606 L 499.6165 373.5495 L 499.9939 371.3568 L 499.4547 370.2784 L 501.0723 366.7915 L 499.6434 364.9582 L 500.5601 362.9812 L 502.2586 361.8668 L 502.2316 360.6446 L 502.9056 359.6022 L 502.5012 357.2297 L 501.1532 357.2656 L 501.5846 359.027 L 500.7488 359.4943 L 499.4278 357.7689 L 498.4033 357.4813 L 499.4547 358.9551 L 499.0503 359.5662 L 497.6754 360.1054 L 496.7317 359.7819 L 496.1117 361.4355 L 494.9524 360.6087 L 495.8151 359.3146 L 495.8151 358.38 L 494.3593 359.2068 L 493.9549 358.0565 L 494.9793 357.1938 L 494.8176 356.331 L 495.4107 355.9356 L 495.896 354.2461 L 495.3568 350.5077 L 492.4181 349.9325 L 491.9059 349.4293 L 491.4745 347.3084 L 490.5309 346.6254 L 490.6657 348.3149 L 489.6952 349.5012 L 485.3816 348.8541 L 485.786 344.1091 L 486.2173 343.9294 L 486.4869 342.5634 L 485.7321 339.1844 L 481.8498 339.1126 L 480.9871 334.9787 L 479.5582 334.5114 L 478.318 334.9787 L 477.9945 333.4689 L 477.3475 333.433 L 476.5387 335.0146 L 475.9456 334.9427 L 472.926 330.8448 L 472.1172 328.9396 L 471.1467 328.5083 L 470.1761 325.4169 L 470.958 322.1098 L 471.9016 321.1751 L 471.4163 319.8451 L 472.4408 319.234 L 471.3084 316.6099 L 468.882 316.6459 L 469.2595 314.7047 L 468.882 314.1655 L 468.8011 311.6133 L 470.5805 310.9303 L 472.3329 305.9337 L 474.8402 306.8683 L 476.5656 305.3226 L 475.8647 301.3685 L 474.0044 301.2247 L 474.1392 297.8098 L 471.2006 296.5157 L 469.6639 296.4797 L 468.7472 295.6889 L 469.3403 294.4667 L 468.8011 290.9799 L 469.583 289.9015 L 471.8207 290.4048 L 472.6564 292.5256 L 475.1098 291.555 L 476.1343 289.9734 L 476.1612 288.5715 L 475.0289 287.0617 L 471.5241 285.5519 L 471.5511 284.2579 L 472.7643 283.3232 L 473.0878 281.7416 L 472.252 280.2318 L 470.7692 280.1599 L 470.1761 280.9508 L 468.909 280.5194 L 468.5315 279.8005 L 467.0218 280.4475 L 465.4042 279.8005 L 463.9753 280.4835 L 462.2229 279.5848 L 461.6567 281.3462 L 458.1789 283.5749 L 456.1838 283.7906 L 453.9462 281.1664 L 449.6865 282.3527 L 448.9046 279.8724 L 446.2086 278.8299 L 446.1008 277.6077 L 445.3998 277.1045 L 445.3998 275.6306 L 444.618 275.7385 L 443.27 277.2842 L 441.7602 276.3496 L 438.2015 276.5653 L 438.0397 273.5817 L 437.3118 272.7549 L 435.3707 275.8104 L 433.9957 276.8528 L 433.2409 276.6372 L 433.4565 274.5522 L 436.2065 272.036 L 436.9074 272.036 L 438.9025 267.7224 L 439.8191 268.2975 L 439.8461 265.5656 L 437.3657 264.8107 L 436.53 266.608 L 435.8829 266.8956 L 435.0472 265.3858 L 434.0227 266.0688 L 433.3217 265.1342 L 432.0816 265.0983 L 432.3242 263.6604 L 434.0766 263.6963 L 434.7506 262.8696 L 434.2114 260.8206 L 435.5864 260.4252 L 434.3732 258.1605 L 434.4541 255.2848 L 435.5055 254.6737 L 434.0766 252.9123 L 434.4271 251.5823 L 434.1305 250.7555 L 434.5349 250.0725 L 432.3512 249.5693 L 430.8684 250.6477 L 429.2508 249.6052 L 427.2288 250.0725 L 425.4224 247.8079 L 425.045 246.2622 L 426.7165 245.0759 L 426.3121 243.0989 L 427.1748 242.2721 L 426.42 240.5826 L 426.393 239.3604 L 425.1259 238.7134 L 425.6381 236.8082 L 425.1798 235.0827 L 426.7435 233.0697 L 427.9836 232.9978 L 427.9836 231.4521 L 426.393 231.3802 L 425.4494 229.7626 L 422.996 229.5829 L 423.1848 228.7561 L 424.4788 228.2888 L 424.3171 226.3836 L 423.8588 225.8444 L 422.9421 227.498 L 420.5157 228.2169 L 420.4348 226.7431 L 419.5182 226.2399 L 419.5452 223.0765 L 420.1113 222.3217 L 420.7853 218.5113 L 422.2951 217.0375 L 422.322 216.2826 L 420.5427 217.1094 L 420.1652 216.3905 L 419.653 216.6421 L 419.0599 213.5507 L 417.7119 214.5212 L 417.0379 214.2696 L 417.6849 210.6749 L 416.7413 209.8841 L 416.984 208.2306 L 414.1262 207.8711 L 414.7732 205.3548 L 415.8786 203.9888 L 416.6604 203.9529 L 417.1996 202.8026 L 415.5011 201.3288 L 414.6923 201.7961 L 414.5306 199.0282 L 416.283 197.3746 L 417.1996 197.4106 L 417.7388 198.1295 L 417.604 201.9039 L 417.9276 202.515 L 418.6824 201.9399 L 418.7364 198.7766 L 419.0868 197.9498 L 419.7339 197.9138 L 420.2192 199.8909 L 420.8392 200.3223 L 422.5647 198.0936 L 424.6406 202.9464 L 426.393 204.4921 L 427.5253 204.2045 L 428.2802 203.234 L 428.7385 200.4661 L 427.9567 199.5674 L 425.5033 198.8844 L 425.045 197.0152 L 425.6381 196.0446 L 428.2532 197.1949 L 429.0081 194.427 L 429.5473 193.8159 L 433.2139 196.44 L 434.8045 195.6492 L 436.1256 196.1525 L 437.0422 196.7995 L 437.2579 197.7701 L 439.1181 199.2079 L 440.6279 196.6198 L 441.3019 198.0217 L 442.3264 198.8485 L 444.4293 199.2079 L 444.9146 198.5968 L 444.8337 197.8779 L 443.7014 197.3027 L 443.8901 196.7635 L 445.0763 196.6198 L 443.9979 195.4335 L 443.944 193.3846 L 445.1033 191.4794 L 444.3484 190.365 L 446.4782 189.5742 L 445.6694 187.4893 L 444.1866 186.6625 L 444.3214 185.4403 L 444.6989 186.2671 L 445.265 185.3325 L 445.0494 183.607 L 443.6474 182.7084 L 442.3803 183.5352 L 442.3803 184.3979 L 441.7602 184.5417 L 442.2185 185.656 L 439.9269 187.7409 L 439.8191 187.2377 L 440.4392 186.6625 L 440.0617 184.6136 L 440.4661 182.4927 L 441.3828 182.1692 L 441.8141 181.3424 L 440.8975 181.0189 L 440.4661 179.4732 L 439.6843 179.6889 L 439.5225 178.934 L 441.5715 177.1726 L 442.9734 175.1955 L 442.569 173.542 L 443.5126 173.0747 L 444.0788 171.5649 L 444.1058 170.9897 L 442.8386 169.8754 L 443.8362 168.7611 L 443.2969 167.7905 L 443.8901 166.1369 L 444.9954 165.2383 L 444.2675 164.8788 L 444.1866 164.1599 L 445.993 162.2547 L 445.4807 160.0619 L 444.5371 158.3365 L 446.2626 156.7908 L 446.5322 155.317 L 446.1817 154.3464 L 447.4488 151.7583 L 446.8826 151.1831 L 447.1253 149.7452 L 446.613 148.0917 L 446.9635 146.4022 L 446.64 145.827 L 444.3484 145.5395 L 443.9979 145.9708 L 442.5421 145.2878 L 440.2774 145.827 L 439.7652 145.3597 L 439.3338 146.4381 L 437.3657 145.9708 L 436.8535 147.0492 L 435.9099 146.6898 L 435.3707 147.3728 L 432.486 147.0852 L 432.1625 146.4381 L 430.8953 147.0852 L 429.9248 145.827 L 427.067 146.6898 L 424.6676 146.4741 L 422.7804 147.0133 L 420.5966 146.6538 L 420.327 147.8041 L 418.6824 147.3728 L 418.7364 147.912 L 417.8736 147.7322 L 414.4767 150.8236 L 405.2024 154.0948 L 403.9623 156.9346 L 400.1878 156.8627 L 394.1488 154.598 L 390.3205 151.3269 L 389.1881 151.6504 L 381.181 150.2844 L 374.7645 144.6768 L 372.0685 140.6867 L 370.2892 139.141 L 367.054 140.6507 L 365.9216 140.1115 L 364.978 140.9383 L 358.5346 138.458 L 357.2944 138.6018 L 353.5739 137.4874 L 352.5225 138.2423 L 352.2529 139.2488 L 352.5764 141.801 L 351.3363 148.1636 L 351.2823 150.5001 L 352.2799 151.4347 L 351.7137 152.6569 L 352.3068 154.0588 L 353.7627 155.4967 L 354.0323 159.0914 L 352.7921 159.8103 L 353.0617 160.8528 L 352.4416 164.0161 L 352.2799 169.6957 L 351.6328 170.7381 L 352.0372 173.4701 L 352.4416 174.1171 L 356.0543 175.1955 L 357.8336 177.8915 L 358.1841 179.2215 L 361.5002 176.202 L 361.635 177.9994 L 363.3065 178.215 L 363.4683 180.4078 L 363.1717 180.6594 L 361.3923 179.6889 L 360.3948 180.9829 L 357.9415 180.5156 L 357.8067 182.6724 L 358.5076 183.643 L 358.4807 184.7573 L 357.0248 186.8423 L 356.9709 188.4239 L 356.2699 188.7834 L 355.4611 188.1723 L 355.3803 189.2147 L 354.4636 189.6461 L 352.3607 190.2572 L 351.498 188.9991 L 350.851 185.7998 L 348.6942 186.1952 L 348.2628 187.2017 L 348.6402 188.2442 L 348.2358 188.1723 L 347.3192 190.1134 L 345.3242 189.8618 L 345.5668 191.084 L 344.6771 191.6232 L 343.9222 193.6362 L 344.5962 194.7865 L 344.731 196.3322 L 344.785 198.3452 L 344.1918 199.0282 L 344.1379 200.0347 L 345.9442 201.5804 L 345.6477 202.9464 L 346.2947 205.7143 L 345.3242 211.969 L 343.8144 213.4069 L 343.7874 214.018 L 344.4614 214.5212 L 342.2238 217.4329 L 342.3316 219.1943 L 343.0056 220.8119 L 344.5423 221.7106 L 345.2972 219.7694 L 346.8609 220.5603 L 346.3217 222.2857 L 350.0152 224.1549 L 350.7971 228.145 L 348.5054 228.5045 L 347.3192 228.2888 L 346.4834 227.3542 L 344.9467 227.3902 L 343.8683 228.7561 L 344.084 230.4456 L 345.0276 231.56 L 344.7041 232.5305 L 347.1305 234.6154 L 347.5079 235.6579 L 346.6182 238.6774 L 346.1869 242.8113 L 345.1354 244.4648 L 345.7286 247.0171 L 345.1354 249.1739 L 343.383 250.9353 L 341.2532 251.6182 L 337.4518 251.2228 L 333.8661 250.0725 L 333.8661 251.3307 L 335.6725 252.3731 L 335.1872 252.5888 L 335.4298 253.8469 L 333.4617 254.4221 L 332.5181 257.154 L 330.604 256.8305 L 330.4422 257.3338 L 330.4961 257.873 L 333.0843 257.873 L 334.648 257.2259 L 334.0279 259.0233 L 335.2681 259.4546 L 333.1113 259.9219 L 332.6799 260.8206 L 331.4397 261.1441 L 332.0598 262.1866 L 331.8441 265.1702 L 329.8761 266.4283 L 330.5231 268.8727 L 331.0353 269.1962 L 330.8466 269.8432 L 332.3564 270.5622 L 331.278 271.6765 L 329.8761 270.6341 L 328.6898 271.3889 L 327.5845 270.7778 L 326.8026 271.1014 L 324.8885 273.8693 L 325.5894 274.3366 L 324.1066 276.1339 L 324.6728 277.6437 L 323.9179 279.8005 L 324.3223 281.7775 L 324.0527 283.2873 L 323.0552 283.7546 L 321.4106 283.4311 L 319.8739 284.5454 L 319.3347 285.3722 L 319.3886 286.5585 L 318.8224 286.8101 L 318.9033 288.1761 L 317.744 288.3198 L 317.5553 286.9539 L 316.0725 286.4866 L 315.5603 285.3363 L 314.2932 284.3298 L 313.3765 285.6598 L 312.0016 284.9768 L 311.6241 285.3003 L 311.5163 286.5225 L 310.8153 286.0552 L 309.0899 287.0258 L 305.3155 284.3298 L 301.7298 285.0846 L 304.6684 289.0747 L 305.9895 292.0583 L 306.0164 294.3589 L 306.5017 294.8262 L 306.0973 295.9405 L 307.2027 295.8327 L 307.7149 296.4438 L 306.7174 296.5157 L 307.3375 297.4503 L 305.1537 298.0614 L 305.8007 298.996 L 305.2346 300.7574 L 305.6659 303.3096 L 309.2516 303.5612 L 315.6142 302.8423 L 317.097 304.388 L 316.6117 305.2867 L 316.6387 307.1559 L 315.4255 310.2473 L 316.5578 312.9074 L 316.396 314.2015 L 317.4475 316.3583 L 316.8544 319.7373 L 318.8494 323.1163 L 319.119 325.9201 L 319.6043 326.8188 L 319.7391 330.4853 L 319.1729 330.8448 L 319.1729 331.4559 L 321.168 334.6552 L 320.7096 337.1714 L 321.2219 340.191 L 320.1704 344.1451 L 319.0651 344.0732 L 317.8788 346.6254 L 317.07 345.7627 L 316.5039 346.1941 L 316.1534 351.622 L 314.8593 353.8148 L 317.1779 356.6546 L 318.9572 361.3636 L 321.9498 361.723 L 322.0037 362.5139 L 320.6557 364.2753 L 322.3812 370.6019 L 323.136 370.7457 L 324.8076 375.4187 L 326.9374 375.0233 L 326.5869 375.8142 L 328.2854 382.1767 L 329.7143 380.3794 L 331.6015 380.3434 L 333.0573 383.5068 L 334.2975 383.2551 L 335.2681 384.3695 L 337.5866 385.4479 L 337.7754 386.2747 L 336.1847 388.0001 L 337.1283 389.5458 L 338.9616 388.6831 L 341.3071 391.415 L 341.6846 393.5718 L 342.5742 394.6143 L 344.2727 394.6143 L 344.8658 393.3202 L 346.9687 395.2973 L 345.5938 396.9508 L 344.1649 397.3462 L 343.5718 398.6403 L 342.062 399.8625 L 341.361 402.3428 L 338.2337 402.3788 L 337.8023 403.5291 L 338.3415 406.5845 L 340.4444 407.1597 L 340.7949 412.1922 L 341.6037 412.6595 L 343.0865 417.3326 L 346.133 419.777 L 348.4246 419.0221 L 342.9786 443.2861 L 344.5154 447.1324 L 344.1379 447.3122 L 344.2727 447.9592 L 346.2947 448.6422 L 348.128 448.4984 L 347.9932 451.0147 L 350.8779 457.9884 L 350.5814 461.583 L 352.0103 463.8477 L 354.8411 465.2496 L 357.0787 465.0699 L 357.4292 465.9326 L 358.6424 466.6875 L 358.8851 468.0534 L 359.613 468.4489 L 361.1227 467.6221 L 365.2207 463.3444 L 367.1618 462.7333 L 367.728 461.5471 L 368.7794 460.8281 L 370.6936 461.1876 L 372.2842 462.5536 L 375.0072 462.6974 L 375.9238 460.8641 L 378.0537 460.3968 L 378.0537 463.5242 L 377.4336 464.8182 L 378.9433 465.4653 L 379.0242 467.2986 L 382.7717 465.8966 L 383.5805 463.8836 L 384.4432 464.6744 L 385.7912 464.8542 L 387.1931 467.0829 L 389.7813 466.6875 L 391.2641 463.8117 L 391.6415 461.6909 L 394.8767 457.4851 L 395.1733 457.4492 L 395.2542 458.4557 L 395.7664 458.5995 L 396.71 456.8021 L 396.2247 453.8904 L 396.2786 449.469 L 397.2492 449.3611 L 398.8668 446.737 L 400.2687 445.8024 L 401.8324 446.4854 L 404.124 446.1259 L 406.2269 448.7141 L 408.5185 450.152 L 409.2734 451.2304 L 409.1655 451.9853 L 410.217 452.129 L 410.3518 452.9199 L 412.1042 453.4591 L 412.7512 455.3642 L 413.9914 455.6159 L 415.0967 455.0407 L 419.3295 456.227 L 422.1603 458.887 L 423.9666 459.3543 L 423.4004 461.4752 L 421.8368 463.8836 L 421.7828 464.8901 L 425.3955 466.8312 L 428.5768 469.6351 L 428.4959 472.0435 L 428.0106 472.6546 L 430.7066 475.2068 L 433.16 476.2493 L 435.5864 479.6283 L 437.5545 479.7002 L 439.0642 478.4061 Z" fill="#000" fill-opacity="1" stroke="#000" stroke-width="0" paint-order="fill" stroke-opacity="1" stroke-dasharray="" stroke-linecap="butt" stroke-linejoin="miter" stroke-miterlimit="10" clip-path="none" style="filter: url(#f1)"/>
<path d="M 528.2211 352.1972 L 528.3828 348.0992 L 528.6524 347.6319 L 530.3509 347.8476 L 531.4563 346.9489 L 532.0764 348.0633 L 532.8582 348.243 L 532.7234 350.3998 L 534.5297 351.9815 L 536.0125 350.7952 L 537.4145 351.9455 L 538.385 351.7658 L 538.9781 350.1841 L 539.8678 350.0763 L 540.8114 348.4946 L 541.4585 349.1057 L 541.8089 350.7952 L 544.6667 352.8083 L 546.7157 350.7593 L 548.9533 352.1253 L 549.8161 351.5142 L 552.0538 351.9096 L 553.6444 350.5796 L 555.8282 351.5142 L 556.61 350.5436 L 556.9874 348.279 L 556.5561 346.4097 L 557.1762 344.3967 L 558.2546 342.2759 L 559.2521 341.8805 L 562.029 343.8575 L 560.627 345.6908 L 560.7349 348.0992 L 561.1932 348.6744 L 563.2152 348.962 L 565.2372 347.4522 L 565.7764 348.0633 L 566.6122 347.9195 L 567.9332 346.4457 L 570.6292 345.7986 L 573.3522 348.5306 L 573.5139 349.5371 L 575.6438 350.7593 L 575.9943 352.0534 L 577.1266 351.658 L 577.0187 352.6285 L 577.6388 352.8442 L 577.8545 350.8312 L 578.5824 352.4128 L 579.2295 352.7004 L 579.1216 349.7528 L 582.6264 350.4717 L 584.0823 348.8182 L 585.646 348.9979 L 586.1582 346.6254 L 587.2096 345.2235 L 587.2096 344.6484 L 585.8347 343.4981 L 585.2146 342.1321 L 585.8886 340.8739 L 585.1607 339.7596 L 585.8616 339.0766 L 585.5651 338.106 L 585.9156 337.495 L 587.614 339.0047 L 588.1532 340.191 L 589.2316 339.8674 L 590.0135 338.7531 L 590.6066 339.508 L 591.2267 338.7171 L 592.4938 338.6093 L 593.734 340.4426 L 595.055 341.0537 L 596.2952 340.1191 L 598.0476 337.1355 L 600.7705 339.7955 L 602.6847 338.825 L 603.3857 341.3772 L 604.545 340.2988 L 606.0278 341.2694 L 607.2679 334.0081 L 610.1796 333.4689 L 610.584 334.4395 L 611.3119 333.9362 L 611.8511 334.4395 L 612.2555 333.2532 L 612.9026 332.9657 L 613.6305 328.7599 L 610.8806 327.6815 L 611.231 325.5966 L 613.8462 326.639 L 615.2211 325.6685 L 616.1378 323.7993 L 615.6794 322.8287 L 615.8412 319.5216 L 613.1452 319.234 L 610.1257 315.8191 L 610.7188 315.172 L 611.6894 315.1361 L 611.9859 314.3093 L 611.9859 311.0382 L 612.7138 308.1984 L 611.6354 306.7965 L 610.7458 306.5448 L 610.0448 308.1265 L 610.3683 309.2768 L 608.1576 311.9368 L 606.5939 311.6852 L 606.6478 313.4466 L 604.8415 311.6493 L 604.1945 312.7277 L 599.5034 308.0186 L 596.43 307.6951 L 595.5403 308.6297 L 594.8663 310.6787 L 593.7879 310.3192 L 594.0305 308.7376 L 593.6801 307.7311 L 588.989 307.9827 L 589.1238 307.3357 L 591.8198 305.8978 L 591.712 303.8848 L 590.2561 301.5123 L 590.6066 299.8947 L 591.5502 299.8228 L 592.8173 301.9436 L 593.6531 301.4763 L 593.8418 299.3914 L 593.1678 298.5287 L 591.8737 299.715 L 591.2537 299.1039 L 591.038 296.9471 L 588.3689 297.2346 L 587.3444 296.1203 L 591.712 292.8491 L 593.5722 293.4243 L 593.7879 291.2675 L 595.4594 290.0812 L 595.756 287.9963 L 597.0501 287.9244 L 596.8883 284.9768 L 596.403 283.8265 L 594.1653 283.6468 L 595.1089 280.088 L 596.7265 278.6861 L 597.2927 277.2842 L 596.9692 271.2092 L 595.2168 270.2386 L 595.5673 269.34 L 595.1359 268.7289 L 593.707 268.8727 L 593.2757 267.7583 L 592.1433 267.2551 L 591.6581 268.8367 L 589.7978 270.3824 L 589.3664 271.5327 L 591.3076 273.6176 L 592.0894 277.392 L 591.1189 277.4999 L 589.3395 280.5194 L 589.8787 282.6762 L 586.0234 283.2873 L 585.619 282.5684 L 585.9156 281.0227 L 582.222 278.3985 L 582.0603 276.062 L 581.3593 275.5228 L 581.2245 274.5882 L 582.1142 272.6111 L 581.8446 271.2811 L 582.7343 269.8432 L 583.3274 267.3629 L 586.0504 266.1407 L 584.4597 264.8107 L 584.1901 263.229 L 583.4892 264.0918 L 581.575 263.6604 L 581.1436 261.899 L 580.6584 261.6474 L 580.3079 259.0592 L 578.7981 257.837 L 578.906 255.824 L 579.6608 256.4351 L 580.254 254.9972 L 578.852 252.0137 L 578.1511 251.4745 L 578.178 250.3242 L 577.3153 250.2163 L 577.4231 248.5268 L 576.6683 249.2817 L 574.835 249.2458 L 574.5115 247.4125 L 573.487 247.6641 L 572.0311 244.7884 L 571.0606 244.3211 L 569.0386 245.1119 L 568.9038 244.0694 L 567.2862 243.6021 L 565.399 244.5727 L 565.4529 243.7819 L 564.0779 243.8178 L 563.6735 242.344 L 562.8917 241.8767 L 561.328 242.9191 L 561.5706 244.7165 L 559.306 247.7719 L 558.8207 250.8634 L 558.3624 250.6836 L 557.7154 248.9222 L 556.3404 250.1444 L 555.6394 250.1085 L 555.0733 248.7425 L 556.4213 248.1674 L 555.262 247.1968 L 555.1002 245.2916 L 552.3503 247.3765 L 550.3822 247.6282 L 549.9509 241.7329 L 548.9803 239.7199 L 548.0637 239.8996 L 545.4485 238.6055 L 543.5344 239.0728 L 543.3726 240.0074 L 542.9682 238.6774 L 542.3751 239.1088 L 542.0516 240.5467 L 541.3506 240.6904 L 539.3825 239.4323 L 538.3311 237.9944 L 539.2477 235.7298 L 538.7355 234.1122 L 538.8433 230.5894 L 538.4659 230.3018 L 537.4414 231.6319 L 537.1718 230.5175 L 538.0345 229.7267 L 541.0271 229.7267 L 541.5124 228.3248 L 542.9952 227.498 L 543.6692 223.7955 L 543.2378 222.8968 L 542.1055 222.5014 L 541.2428 219.8773 L 540.1105 218.6192 L 539.1938 218.5832 L 538.6007 219.2662 L 536.9292 219.1584 L 536.8213 217.7205 L 535.716 217.5048 L 536.0934 215.0245 L 534.7993 213.8382 L 535.4733 211.286 L 536.6056 210.9625 L 536.363 208.6619 L 536.7135 207.1162 L 535.0959 207.26 L 533.7209 205.5705 L 533.1278 201.6882 L 533.3974 200.0706 L 534.2062 199.7831 L 534.1792 198.6687 L 536.0934 198.2374 L 536.0934 197.5544 L 538.0076 196.5479 L 539.4634 197.3387 L 541.4585 196.0087 L 539.8139 195.3976 L 538.1154 193.9956 L 537.6032 192.7016 L 536.2282 193.3127 L 534.4219 192.378 L 533.5861 193.3486 L 532.8043 192.7016 L 532.6695 189.9696 L 532.0494 189.5383 L 531.8876 188.2442 L 532.4268 186.9141 L 531.6989 186.1593 L 533.5592 185.1887 L 532.7773 183.5352 L 532.7504 182.313 L 531.4293 180.8032 L 533.2356 179.7248 L 534.5836 180.5156 L 535.8508 179.5091 L 537.6841 182.313 L 539.1938 183.5352 L 540.8384 182.6005 L 541.8089 183.643 L 542.7525 183.5352 L 544.0736 182.1332 L 543.9388 181.3065 L 542.8334 180.1202 L 542.8334 178.3588 L 542.2942 176.885 L 543.3996 175.519 L 543.103 174.5485 L 540.0296 172.5355 L 539.4365 171.2414 L 538.1424 170.5584 L 536.7135 167.9343 L 539.0051 165.8853 L 538.6277 163.9082 L 538.9242 162.039 L 538.0076 161.3201 L 538.3041 160.1698 L 537.1988 159.4868 L 538.0076 155.2091 L 539.5982 155.4248 L 540.9462 153.304 L 541.9977 153.5196 L 541.755 152.1537 L 542.8873 151.1112 L 541.9707 149.6015 L 540.7305 148.6668 L 541.4315 147.0492 L 540.2992 147.6244 L 537.0909 147.4087 L 536.4439 148.559 L 531.4563 150.5001 L 528.976 150.0688 L 525.1476 150.608 L 523.8535 149.6733 L 522.5325 150.3204 L 520.0791 149.7812 L 517.4101 151.938 L 516.0891 151.7942 L 515.0376 152.7288 L 514.121 152.0818 L 511.398 152.8367 L 508.675 151.6145 L 503.5796 150.9315 L 503.337 150.2844 L 502.2316 150.3563 L 502.0159 149.4577 L 500.8566 150.4282 L 498.2954 148.9904 L 498.1876 147.0133 L 496.3273 145.7911 L 495.5994 143.6702 L 493.5235 144.5689 L 492.0407 143.5983 L 488.8055 145.2519 L 487.2418 147.7322 L 487.781 148.523 L 487.4036 149.0982 L 485.6512 148.7747 L 483.764 149.8531 L 483.1708 149.1341 L 482.8473 149.8531 L 481.3376 149.1701 L 481.2836 147.6244 L 480.7714 147.9479 L 480.5827 148.9544 L 479.2347 148.8466 L 478.9381 150.572 L 480.2052 149.7452 L 482.362 151.1831 L 482.2272 152.5491 L 481.3915 152.4772 L 480.6096 153.3399 L 479.2616 152.2615 L 478.6146 153.0883 L 478.4798 152.2256 L 477.1857 151.9739 L 476.997 150.5001 L 476.2421 149.7093 L 474.7863 149.9609 L 473.9775 148.559 L 472.6834 148.3793 L 472.1712 148.9185 L 471.7668 150.8955 L 470.6344 150.5361 L 470.1761 149.5655 L 469.7987 150.8596 L 470.1491 151.5066 L 469.6099 152.4412 L 467.7767 150.9674 L 467.2644 149.7812 L 466.4556 149.5655 L 465.6199 150.1407 L 465.1885 149.7452 L 464.7302 147.9479 L 466.0782 146.9054 L 466.1321 146.0787 L 464.9459 146.9054 L 463.3013 146.7976 L 463.6248 145.4676 L 463.1665 145.3238 L 461.8994 149.0263 L 460.821 149.1701 L 460.9827 147.8401 L 460.2548 146.6538 L 460.6053 145.4316 L 460.147 144.497 L 460.7131 143.7421 L 460.4975 142.1605 L 459.3921 142.0526 L 458.6911 142.8794 L 457.8554 140.435 L 456.6961 138.7455 L 455.8334 138.9612 L 457.2083 140.9742 L 456.8848 141.1899 L 457.1544 141.6213 L 456.8309 143.3827 L 455.9682 143.85 L 455.7255 144.6768 L 456.2108 146.546 L 454.4584 146.0787 L 453.0026 146.9414 L 450.3066 146.9054 L 449.6865 146.2584 L 448.5811 146.1506 L 447.961 146.7617 L 447.4758 145.0362 L 447.1522 145.18 L 446.613 148.0917 L 447.1253 149.7452 L 446.8826 151.255 L 447.4488 151.7583 L 446.1817 154.3464 L 446.5322 155.317 L 446.2626 156.7908 L 444.5371 158.2287 L 445.993 162.2547 L 444.1866 164.1599 L 444.2675 164.8788 L 444.9954 165.2383 L 443.8901 166.1369 L 443.2969 167.7905 L 443.8362 168.7611 L 442.8386 169.8754 L 444.1058 170.9897 L 444.0788 171.5649 L 443.5126 173.0747 L 442.569 173.542 L 442.9734 175.1955 L 440.1696 178.6464 L 439.5225 178.7902 L 439.6304 179.6529 L 440.4122 179.4372 L 440.8705 180.9829 L 441.8141 181.3424 L 441.3828 182.1692 L 440.4661 182.4927 L 440.0617 184.6136 L 440.4392 186.6625 L 439.8191 187.2377 L 439.9269 187.7409 L 442.2185 185.656 L 441.7602 184.5417 L 442.3803 184.3979 L 442.3803 183.5352 L 443.6474 182.7084 L 445.0494 183.607 L 445.265 185.3325 L 444.6989 186.2671 L 444.3214 185.4403 L 444.1866 186.6625 L 445.6694 187.4893 L 446.4782 189.5742 L 444.3484 190.365 L 445.1033 191.4794 L 443.944 193.3846 L 443.9979 195.4335 L 445.0763 196.6198 L 443.8901 196.7635 L 443.7014 197.3027 L 444.9146 197.9857 L 444.6989 198.9922 L 442.1107 198.7406 L 440.6279 196.6198 L 439.1181 199.2079 L 437.2579 197.7701 L 437.0422 196.7995 L 436.1256 196.1525 L 434.8045 195.6492 L 433.2139 196.44 L 429.5473 193.8159 L 429.0081 194.427 L 428.2532 197.1949 L 425.6381 196.0446 L 425.018 197.123 L 425.5572 198.9203 L 427.9567 199.5674 L 428.6846 200.2863 L 428.3072 203.198 L 427.1479 204.3843 L 426.0964 204.4202 L 425.1798 203.7013 L 422.5647 198.0936 L 420.8392 200.3223 L 420.2192 199.8909 L 419.7339 197.9138 L 419.0868 197.9498 L 418.7364 198.7766 L 418.8442 201.185 L 418.1702 202.551 L 417.604 201.9399 L 417.8197 198.8485 L 417.3884 197.5544 L 415.6629 197.6622 L 414.4767 199.2798 L 414.7732 201.9399 L 415.5011 201.3288 L 417.1996 202.7666 L 416.6604 203.9529 L 415.9325 203.9529 L 414.8541 205.247 L 414.1262 207.7273 L 416.984 208.2306 L 416.7413 209.8841 L 417.6849 210.6749 L 417.0109 214.2337 L 417.7119 214.5212 L 419.0599 213.5507 L 419.68 216.678 L 420.1652 216.3905 L 420.7044 217.1453 L 422.2681 216.2107 L 422.4029 216.678 L 421.001 218.044 L 420.5427 219.1224 L 420.1383 222.2138 L 419.5452 223.0765 L 419.5452 226.3477 L 420.4348 226.7431 L 420.7314 228.3607 L 422.9421 227.498 L 423.3196 226.2758 L 423.8857 225.8444 L 424.3171 226.3836 L 424.4788 228.2888 L 423.1848 228.7561 L 422.996 229.5829 L 425.4494 229.7626 L 426.393 231.3802 L 427.6871 231.2005 L 428.1184 231.9913 L 427.768 232.4227 L 427.9836 232.9978 L 426.7435 233.0697 L 425.1798 235.0827 L 425.6381 236.8082 L 425.1259 238.7134 L 426.393 239.3604 L 426.42 240.5826 L 427.1748 242.2721 L 426.3121 243.0989 L 426.7165 245.0759 L 425.045 246.2622 L 425.4224 247.8079 L 427.2288 250.0725 L 429.2508 249.6052 L 430.8684 250.6477 L 432.2164 249.6052 L 434.4541 249.9287 L 434.1036 252.9842 L 435.5055 254.6737 L 434.4271 255.3567 L 434.4001 258.4841 L 435.5864 260.4252 L 434.2114 260.8206 L 434.7506 262.8696 L 434.0766 263.6963 L 432.3242 263.6604 L 432.0816 265.0983 L 433.3217 265.1342 L 434.0227 266.0688 L 435.0472 265.3858 L 435.8829 266.8956 L 436.53 266.608 L 437.3657 264.8107 L 439.873 265.6734 L 439.8191 268.2975 L 438.9025 267.7224 L 436.9074 272.036 L 436.2065 272.036 L 433.4565 274.5522 L 433.1869 276.5293 L 433.9957 276.8528 L 434.9663 276.2058 L 437.3118 272.7549 L 438.0397 273.5817 L 438.2015 276.5653 L 441.7602 276.3496 L 443.27 277.2842 L 444.618 275.7385 L 445.3998 275.6306 L 445.3998 277.1045 L 446.1008 277.6077 L 446.2086 278.8299 L 448.9046 279.8724 L 449.6865 282.3527 L 453.9462 281.1664 L 456.1838 283.7906 L 458.1789 283.5749 L 461.6567 281.3462 L 462.2229 279.5848 L 463.9753 280.4835 L 465.4042 279.8005 L 467.0218 280.4475 L 468.5315 279.8005 L 468.909 280.5194 L 470.1761 280.9508 L 470.8232 280.1599 L 472.279 280.2678 L 473.0878 281.7416 L 472.7643 283.3232 L 471.5511 284.2579 L 471.5241 285.5519 L 475.0289 287.0617 L 476.1612 288.5715 L 476.1343 289.9734 L 475.1098 291.555 L 472.6564 292.5256 L 471.8207 290.4048 L 469.583 289.9015 L 468.8011 290.9799 L 469.3403 294.4667 L 468.7472 295.6889 L 469.6639 296.4797 L 471.2006 296.5157 L 474.1392 297.8098 L 474.0044 301.2247 L 475.8647 301.3685 L 476.5656 305.3945 L 474.8402 306.8683 L 472.3329 305.9337 L 470.5805 310.9303 L 468.8011 311.6133 L 468.882 314.1655 L 469.2595 314.7047 L 468.882 316.6459 L 471.3084 316.6099 L 472.4408 319.3059 L 471.4163 319.8451 L 471.9016 321.1751 L 470.8501 322.3973 L 470.23 325.8123 L 471.1467 328.5083 L 472.1172 328.9396 L 472.926 330.8448 L 475.9456 334.9427 L 476.5387 335.0146 L 477.3475 333.433 L 477.9945 333.4689 L 478.318 334.9787 L 479.5582 334.5114 L 480.9871 334.9787 L 481.8498 339.1126 L 485.7321 339.1844 L 486.4869 342.5634 L 486.2173 343.9294 L 485.786 344.1091 L 485.3816 348.8541 L 489.6952 349.5012 L 490.6657 348.3149 L 490.5309 346.6254 L 491.4745 347.3084 L 491.9059 349.4293 L 492.4181 349.9325 L 495.3568 350.5077 L 495.896 354.2461 L 495.4107 355.9356 L 494.8176 356.331 L 494.9793 357.1938 L 493.9549 358.3081 L 494.3593 359.2068 L 495.7881 358.38 L 495.7881 359.3865 L 494.8176 360.3571 L 495.9499 361.3636 L 496.7317 359.7819 L 497.891 360.0695 L 499.4278 359.0989 L 498.3763 357.5173 L 499.4278 357.7689 L 500.8027 359.4943 L 501.5846 359.027 L 501.1532 357.2656 L 502.6899 356.7264 L 503.3639 356.9781 L 504.4154 358.6676 L 506.3295 358.9551 L 507.7045 359.8538 L 508.2437 358.0924 L 508.7559 358.3441 L 509.2682 356.8702 L 510.6701 355.7918 L 509.9691 355.0729 L 510.5892 353.8148 L 511.7755 353.671 L 512.3147 352.8083 L 514.0131 352.952 L 513.9862 354.6415 L 517.5988 354.6056 L 518.4885 355.3245 L 519.0007 353.0599 L 520.3218 352.4128 L 523.6918 353.4553 L 525.0128 352.7004 L 525.6599 354.5337 L 526.0373 354.4978 L 526.3608 353.5631 L 528.2211 352.1972 Z" fill="#000" fill-opacity="1" stroke="#000" stroke-width="0" paint-order="fill" stroke-opacity="1" stroke-dasharray="" stroke-linecap="butt" stroke-linejoin="miter" stroke-miterlimit="10" clip-path="none" style="filter: url(#f1)"/>
<path d="M 327.3418 248.9582 L 330.5231 248.6706 L 333.4887 250.1085 L 341.1993 251.6182 L 343.1404 251.079 L 344.8389 249.749 L 345.7286 247.089 L 345.1354 244.4648 L 346.1869 242.8113 L 346.6182 238.6774 L 347.5079 235.6579 L 347.1305 234.6154 L 344.7041 232.5305 L 345.0276 231.56 L 344.084 230.4456 L 343.8683 228.7561 L 344.9467 227.3902 L 346.4834 227.3542 L 347.3192 228.2888 L 348.5054 228.5045 L 350.7971 228.4326 L 350.0152 224.1549 L 346.3217 222.2857 L 346.8609 220.5603 L 345.2972 219.7694 L 344.5423 221.7106 L 343.0056 220.8119 L 342.3316 219.1943 L 342.2238 217.4329 L 344.4614 214.5212 L 343.7874 214.018 L 343.8144 213.4069 L 345.3242 211.969 L 346.2947 205.894 L 346.2408 204.2764 L 345.6477 202.9464 L 345.9442 201.5804 L 344.1379 200.0347 L 344.1918 199.0282 L 344.785 198.3452 L 344.731 196.3322 L 344.5962 194.7865 L 343.9222 193.6721 L 344.6771 191.6232 L 345.5668 191.084 L 345.2702 189.9696 L 347.481 190.0056 L 348.2358 188.1723 L 348.6402 188.2442 L 348.2628 187.3096 L 348.4785 186.4468 L 350.3927 185.5841 L 351.0127 186.2312 L 351.5519 189.1428 L 352.4147 190.2931 L 355.3803 189.2147 L 355.542 188.1363 L 356.6474 188.6755 L 357.2135 188.0285 L 357.0518 186.8063 L 358.4807 184.7573 L 358.5076 183.643 L 357.8067 182.6724 L 357.9415 180.5156 L 360.3948 180.9829 L 361.3923 179.6889 L 363.4683 180.4437 L 363.3065 178.215 L 361.635 177.9994 L 361.5002 176.202 L 358.1841 179.2215 L 357.8336 177.8915 L 356.0543 175.1955 L 352.4416 174.1171 L 352.0372 173.506 L 351.6328 170.7381 L 352.2799 169.6957 L 352.4416 164.0161 L 353.0617 160.8528 L 352.7921 159.8103 L 354.0323 159.1273 L 353.7896 155.6046 L 352.2799 154.0229 L 351.7137 152.6569 L 352.2529 151.2909 L 351.2823 150.5001 L 351.3902 147.4806 L 352.5764 141.801 L 352.2259 139.4285 L 352.5225 138.2423 L 344.3536 135.1509 L 342.089 136.7325 L 340.4444 134.5038 L 339.3121 134.9711 L 337.317 133.2457 L 334.1088 132.9581 L 333.0304 131.4843 L 331.952 131.4843 L 327.5036 128.6086 L 315.8299 127.7099 L 313.1339 128.4648 L 311.5702 127.7818 L 306.6904 123.5041 L 303.1856 122.3898 L 301.2715 121.0957 L 297.4162 117.5729 L 295.9873 114.841 L 293.8844 115.1285 L 290.3796 114.5175 L 282.4264 107.9751 L 280.2157 109.3411 L 276.0908 107.8314 L 275.9829 104.3086 L 275.0663 102.0439 L 272.5051 99.8152 L 269.5934 101.0374 L 268.7307 102.5831 L 267.9758 102.3315 L 267.5984 103.5896 L 267.2209 103.338 L 265.6303 104.6681 L 263.77 104.8118 L 262.6916 106.753 L 263.4196 108.4784 L 262.3412 111.426 L 262.7725 115.1285 L 259.9687 115.3802 L 259.106 113.5109 L 258.2432 112.9358 L 256.0055 113.2234 L 255.6551 113.7985 L 255.6011 115.3802 L 255.035 115.6318 L 255.1967 119.3703 L 254.8463 120.0173 L 254.8732 123.1806 L 254.1453 125.2296 L 254.1723 127.5302 L 252.5547 129.2197 L 252.5277 130.6216 L 251.4493 131.8078 L 251.8267 132.7424 L 251.0988 140.0396 L 250.2091 141.6572 L 250.8831 143.3467 L 252.9591 144.0657 L 254.9002 143.8859 L 257.1648 147.1211 L 255.3315 148.7387 L 254.6575 150.5001 L 254.5227 151.7583 L 254.9811 152.0458 L 254.0644 156.0719 L 254.6845 157.1503 L 253.9027 158.7319 L 254.2531 160.4214 L 252.5277 161.4279 L 253.013 162.9377 L 252.7973 163.5847 L 253.3635 164.5193 L 253.0669 165.7775 L 253.3904 166.6402 L 252.9051 166.9637 L 252.9321 168.114 L 253.3635 169.0846 L 254.3071 169.5878 L 255.7359 173.2184 L 258.2702 176.7772 L 258.405 179.2575 L 257.758 180.3359 L 257.9736 181.1986 L 257.3266 182.1332 L 257.3805 182.8881 L 258.8364 184.5057 L 259.0251 185.8357 L 261.128 186.2671 L 258.5937 190.0775 L 255.6281 193.097 L 256.1134 194.427 L 255.6551 196.6917 L 254.7923 196.1884 L 249.4543 196.2603 L 249.5351 198.7406 L 248.8881 201.6882 L 252.2851 202.0837 L 251.7189 206.0019 L 253.2287 210.7828 L 252.339 212.8677 L 252.4738 213.299 L 254.3071 212.2206 L 255.1428 212.9036 L 255.5472 214.018 L 255.8438 221.7825 L 255.2776 221.8903 L 255.3855 223.9393 L 256.5717 225.0896 L 259.9956 223.2563 L 262.9073 222.7171 L 264.498 223.4001 L 265.792 226.4196 L 265.846 228.6842 L 266.4391 230.3378 L 266.3312 232.6743 L 267.2209 234.1481 L 269.4316 236.0174 L 273.5296 237.2396 L 276.2256 238.7134 L 277.7623 237.0958 L 280.3235 236.5566 L 281.5367 237.5271 L 281.8063 239.1807 L 282.7769 240.1153 L 288.8698 241.6251 L 289.1125 239.6839 L 291.5658 238.0304 L 289.9752 240.5826 L 290.11 241.3375 L 293.7226 240.9061 L 293.8574 240.1512 L 294.6393 240.1153 L 295.8794 241.2656 L 299.2495 242.6316 L 303.1317 241.5532 L 305.8816 242.6316 L 310.5727 241.7329 L 312.8104 242.8113 L 313.9427 244.0335 L 314.9132 243.9616 L 317.07 245.1838 L 319.146 244.2492 L 319.9548 245.1119 L 321.1949 243.674 L 322.9743 243.0629 L 324.1336 244.4289 L 323.5944 246.5138 L 324.0797 247.3406 L 326.8565 247.736 L 327.3418 248.9582 Z" fill="#000" fill-opacity="1" stroke="#000" stroke-width="0" paint-order="fill" stroke-opacity="1" stroke-dasharray="" stroke-linecap="butt" stroke-linejoin="miter" stroke-miterlimit="10" clip-path="none" style="filter: url(#f1)"/>
<path d="M 230.9327 361.5433 L 232.065 361.4714 L 232.0381 360.8244 L 230.4205 360.6806 L 230.8518 359.6741 L 230.07 358.5238 L 230.8249 358.0205 L 231.6606 359.5662 L 233.1434 357.1219 L 234.9498 357.4094 L 235.0306 356.6186 L 233.7635 355.3605 L 233.6018 354.354 L 235.3002 352.1612 L 236.8639 351.5861 L 235.1654 350.5077 L 234.6802 349.5371 L 235.7855 348.8901 L 237.2953 349.609 L 237.1066 348.1352 L 238.7242 347.3444 L 238.185 346.0862 L 238.805 345.6549 L 238.6433 344.0732 L 241.2584 346.0143 L 241.7437 345.4392 L 241.4471 344.5765 L 239.5599 342.9589 L 238.859 341.3413 L 239.0477 340.6583 L 240.0452 340.4426 L 240.2878 339.3282 L 239.3173 338.5374 L 238.805 336.6322 L 240.153 335.9133 L 243.6309 336.2009 L 245.9225 335.0146 L 246.1651 333.9722 L 245.1946 332.067 L 245.0059 330.5213 L 248.4298 324.2306 L 249.9665 325.7404 L 251.9615 325.9201 L 252.8782 325.4887 L 253.4713 323.7633 L 254.1723 323.3319 L 252.7434 318.0118 L 248.942 313.6982 L 249.1307 308.6297 L 248.4837 306.9043 L 248.4567 305.3586 L 249.2386 303.3096 L 250.1283 302.6985 L 249.0229 301.728 L 251.2875 301.6201 L 251.5032 302.6266 L 252.339 303.3815 L 255.0619 304.2083 L 254.9811 302.8064 L 254.3071 302.2312 L 254.8193 301.5842 L 256.3291 304.2802 L 257.4614 303.705 L 257.8388 301.6561 L 258.7824 300.9731 L 258.9442 300.0744 L 261.748 300.7574 L 261.074 299.1758 L 261.4515 298.6725 L 262.1794 298.8522 L 262.0446 298.0973 L 260.8044 298.0614 L 260.0765 297.2346 L 260.1574 296.3719 L 261.4515 297.0908 L 263.9588 296.1203 L 263.8779 296.7314 L 265.4685 298.1692 L 265.172 299.2117 L 265.4685 301.045 L 266.4391 300.2901 L 267.4096 300.7215 L 269.0542 300.2542 L 269.9439 300.7574 L 270.6449 303.8129 L 271.1571 303.9926 L 269.89 304.7115 L 269.8091 305.4305 L 270.8336 305.071 L 271.7502 306.7605 L 273.6644 307.9827 L 276.2525 307.7311 L 277.4118 306.401 L 278.1397 306.9043 L 279.299 306.5089 L 279.1642 303.4534 L 280.1887 302.9502 L 280.1078 302.0155 L 280.8088 302.0515 L 281.8333 300.6855 L 283.5587 300.2542 L 284.0979 298.313 L 285.2033 298.313 L 285.419 297.1268 L 286.7939 297.0189 L 287.5488 293.4243 L 287.3062 291.4832 L 289.8943 289.0388 L 292.6712 289.1107 L 294.3966 290.1172 L 296.203 288.2479 L 300.0043 287.529 L 301.3254 285.2284 L 305.0189 284.2938 L 309.0899 287.0258 L 310.8153 286.0552 L 311.5163 286.5225 L 311.6241 285.3003 L 312.0016 284.9768 L 313.3765 285.6598 L 314.401 284.3298 L 316.0725 286.4866 L 317.5553 286.9539 L 317.744 288.3198 L 318.8494 288.212 L 318.8224 286.8101 L 319.3886 286.5585 L 319.3347 285.3722 L 319.8739 284.5454 L 321.4106 283.4311 L 323.0552 283.7546 L 324.0527 283.2873 L 324.3223 281.7775 L 323.9179 279.8005 L 324.6728 277.6437 L 324.1066 276.1339 L 325.5894 274.3366 L 324.8885 273.8693 L 326.8026 271.1014 L 327.5845 270.7778 L 328.6898 271.3889 L 329.8761 270.6341 L 331.278 271.6765 L 332.3564 270.5622 L 330.8466 269.8432 L 331.0353 269.1962 L 330.5231 268.8727 L 329.8761 266.4283 L 331.8441 265.1702 L 332.0598 262.1866 L 331.4397 261.1441 L 332.6799 260.8206 L 333.1113 259.9219 L 335.2681 259.4546 L 334.0279 259.0233 L 334.648 257.2259 L 333.3809 257.837 L 330.4961 257.873 L 330.4692 257.19 L 332.5451 257.154 L 333.1382 254.8534 L 333.8661 254.1705 L 335.3489 253.9548 L 335.1872 252.5888 L 335.6725 252.481 L 333.8931 251.3666 L 333.8661 250.0725 L 332.7608 249.4974 L 330.3074 248.6706 L 327.3418 248.9582 L 326.8565 247.736 L 323.9718 247.2687 L 323.5944 246.5138 L 324.1336 244.4289 L 322.9743 243.0629 L 321.1949 243.674 L 319.9548 245.1119 L 319.146 244.2492 L 317.07 245.1838 L 314.9132 243.9616 L 313.9427 244.0335 L 312.8104 242.8113 L 310.5727 241.7329 L 305.8816 242.6316 L 303.1317 241.5532 L 299.2495 242.6316 L 295.8794 241.2656 L 294.6393 240.1153 L 293.8574 240.1512 L 293.7226 240.9061 L 290.11 241.3375 L 289.9752 240.5826 L 291.5658 238.0304 L 289.1125 239.6839 L 288.8698 241.6251 L 282.7769 240.1153 L 281.8063 239.1807 L 281.5367 237.5271 L 280.3235 236.5566 L 277.7623 237.0958 L 276.1177 238.6774 L 273.5296 237.2396 L 269.4316 236.0174 L 267.2209 234.1481 L 266.3312 232.6743 L 266.4391 230.3378 L 265.846 228.6842 L 265.792 226.4196 L 264.498 223.4001 L 262.9073 222.7171 L 259.9956 223.2563 L 256.5717 225.0896 L 255.4394 224.0471 L 255.2776 221.8903 L 255.8438 221.7825 L 255.5472 214.018 L 255.1428 212.9036 L 254.3071 212.2206 L 252.4738 213.299 L 252.339 212.8677 L 253.2287 210.7828 L 251.7189 206.0019 L 252.2851 202.0837 L 248.8881 201.6882 L 249.5351 198.7406 L 249.4543 196.2603 L 254.7923 196.1884 L 255.6551 196.6917 L 256.1134 194.427 L 255.6281 193.097 L 258.5937 190.0775 L 261.128 186.2671 L 259.0251 185.8357 L 258.8364 184.5057 L 257.3805 182.8881 L 257.3266 182.1332 L 257.9736 181.1986 L 257.758 180.3359 L 258.405 179.2575 L 258.2702 176.7772 L 255.7359 173.2184 L 254.3071 169.5878 L 253.3635 169.0846 L 252.9321 168.114 L 252.9051 166.9637 L 253.3904 166.6402 L 253.0669 165.7775 L 253.3635 164.5193 L 252.7973 163.5847 L 253.013 162.9377 L 252.5277 161.4279 L 254.2531 160.4214 L 253.9027 158.7319 L 254.6845 157.1503 L 254.0644 156.0719 L 254.9811 152.0458 L 254.5227 151.7583 L 254.6575 150.5001 L 255.3315 148.7387 L 257.1648 147.1211 L 254.9002 143.8859 L 252.9591 144.0657 L 250.8831 143.3467 L 250.2091 141.6572 L 251.0988 140.0396 L 251.8267 132.7424 L 251.4493 131.8078 L 252.5277 130.6216 L 252.5547 129.2197 L 254.1723 127.5302 L 254.1453 125.2296 L 254.8732 123.1806 L 254.8463 120.0173 L 255.1967 119.3703 L 255.035 115.6318 L 255.6011 115.3802 L 255.6551 113.7985 L 256.0055 113.2234 L 258.2432 112.9358 L 259.106 113.5109 L 259.9687 115.3802 L 262.7725 115.1285 L 262.3412 111.426 L 263.4196 108.4784 L 262.7186 107.2922 L 262.7725 106.2857 L 264.0396 104.5962 L 265.6303 104.6681 L 267.3288 103.2661 L 266.6278 99.959 L 266.1425 99.3839 L 264.8215 101.325 L 261.6132 100.4982 L 260.6696 99.4198 L 256.7874 98.0898 L 254.7654 99.8512 L 251.5571 104.6321 L 247.9984 106.2497 L 244.3858 105.3151 L 243.3343 105.9621 L 241.9054 104.7759 L 240.4496 104.7759 L 239.4521 103.6975 L 235.8934 102.5472 L 237.511 100.1028 L 237.4031 99.0604 L 238.5894 98.0179 L 238.5354 95.8971 L 238.2928 94.1716 L 236.2708 89.8939 L 234.5723 84.1425 L 233.6557 83.6392 L 233.1434 81.0151 L 233.0895 74.2212 L 232.6582 71.9565 L 234.6532 64.4796 L 234.7341 62.7901 L 234.1949 62.2509 L 234.2758 59.5909 L 233.1974 59.4471 L 233.3322 58.6922 L 232.2807 59.7347 L 227.1853 57.9373 L 224.7319 56.3197 L 223.7344 54.81 L 218.4502 53.3002 L 218.6389 55.0616 L 220.2026 55.5289 L 220.4722 56.6432 L 219.7173 59.5549 L 220.634 59.7706 L 221.5776 59.1595 L 222.656 60.4895 L 222.1437 59.6268 L 222.2785 58.836 L 223.0873 60.3817 L 223.1143 62.5744 L 222.0629 69.3684 L 221.308 70.6265 L 219.3669 71.7049 L 213.22 72.7833 L 211.7102 75.5512 L 206.2912 80.7635 L 207.5853 81.8059 L 208.9333 85.1849 L 210.9823 93.7762 L 211.7911 93.9919 L 211.6293 96.3284 L 212.519 101.4688 L 215.5924 107.8673 L 214.7567 110.8509 L 213.5435 111.9652 L 214.0827 118.7232 L 213.5974 123.8636 L 211.4676 124.8342 L 203.8109 124.0793 L 200.6027 125.625 L 199.3355 130.2981 L 196.6935 135.2587 L 193.8627 143.2748 L 193.7009 145.7552 L 192.8651 147.8401 L 189.4682 154.2026 L 187.4462 157.0424 L 187.7158 157.9051 L 186.4217 165.418 L 186.907 165.7415 L 186.88 170.7022 L 185.5859 170.7022 L 185.2085 173.9374 L 183.8605 176.4537 L 186.0982 180.0483 L 187.7697 180.8032 L 187.6888 183.5711 L 188.3628 185.656 L 188.5246 190.8683 L 186.3678 192.0186 L 186.3947 193.4564 L 189.8726 205.9659 L 189.9804 213.3709 L 193.0269 217.7205 L 194.0783 221.1354 L 194.5636 228.3248 L 193.2965 231.7397 L 192.973 234.5435 L 193.9975 238.3898 L 195.9386 239.1447 L 196.6665 243.7819 L 194.5097 243.71 L 194.4827 244.7524 L 193.8896 245.04 L 193.3235 246.8373 L 189.8456 249.066 L 191.5441 252.6607 L 191.9215 257.3697 L 194.7793 263.948 L 195.3185 268.1178 L 196.8552 271.2451 L 203.11 278.2188 L 208.5828 281.3102 L 206.8304 285.3722 L 204.5388 288.895 L 206.48 289.7218 L 208.1515 291.3034 L 209.2568 291.4472 L 209.85 293.0648 L 209.796 294.7184 L 211.3597 291.9505 L 211.0362 290.261 L 211.8989 289.7937 L 216.0508 292.5256 L 219.7443 290.4766 L 222.3055 293.8916 L 222.7908 298.3849 L 222.1707 300.2542 L 221.1732 301.1169 L 224.3814 302.3031 L 224.9206 304.0286 L 223.977 306.7965 L 223.1143 307.1559 L 222.8986 308.0546 L 222.0898 307.4075 L 220.0139 307.803 L 220.2565 310.7146 L 221.308 311.1101 L 221.6854 313.0152 L 222.629 313.5185 L 222.8717 315.2799 L 224.3275 314.7407 L 225.352 315.4956 L 224.9745 317.1491 L 224.1118 317.9399 L 224.678 319.4856 L 225.4598 320.1327 L 224.7319 320.2765 L 224.7049 321.5706 L 226.5382 321.8941 L 227.1583 323.8711 L 225.2711 326.4234 L 222.8717 327.7534 L 223.4648 330.1618 L 222.8717 338.0342 L 223.33 343.3543 L 218.1267 344.2529 L 217.938 347.6679 L 219.3129 350.4358 L 219.8791 352.9161 L 222.1707 355.7918 L 222.8717 360.0695 L 224.4623 361.4714 L 224.9476 364.0596 L 230.4474 364.6347 L 230.0161 362.406 L 230.9327 361.5433 Z" fill="#f4c0c7" fill-opacity="1" stroke="#000000" stroke-width="0.4" paint-order="fill" stroke-opacity="1" stroke-dasharray="" stroke-linecap="butt" stroke-linejoin="miter" stroke-miterlimit="10" clip-path="none"/>
<path d="M 439.0642 478.4061 L 439.7921 477.0401 L 445.265 473.0141 L 447.7184 472.5827 L 449.0664 471.7559 L 451.7624 472.4749 L 453.4339 474.2722 L 456.3456 475.5663 L 456.5613 475.1349 L 456.8039 471.5403 L 454.6741 467.8018 L 454.7819 462.302 L 453.9192 457.5929 L 449.9022 447.9233 L 449.2012 446.7011 L 448.2576 446.8449 L 447.8802 446.3776 L 448.0958 445.2273 L 449.5247 443.5018 L 450.2526 440.9496 L 451.6546 439.4398 L 452.5712 433.5805 L 453.5687 432.8257 L 454.4045 429.6623 L 453.8922 427.5055 L 454.6202 425.5644 L 454.701 423.7671 L 455.5368 422.5808 L 455.1863 421.2149 L 455.4829 418.6986 L 453.1643 415.6072 L 453.8114 415.1758 L 453.8383 414.1334 L 452.8947 413.4863 L 452.1129 411.9047 L 448.0419 411.0419 L 447.0174 409.9995 L 444.5102 409.3524 L 442.7577 407.9146 L 442.2725 409.1008 L 441.4637 408.0224 L 439.6573 407.2316 L 438.8485 404.4996 L 437.3657 403.4572 L 437.4197 402.1272 L 436.4491 400.1501 L 436.9344 398.7482 L 436.7187 397.0587 L 435.9908 395.0097 L 438.3093 393.3202 L 438.525 391.0196 L 439.4956 390.6961 L 439.873 389.6896 L 441.4906 389.1863 L 442.0837 389.8693 L 444.2136 388.8988 L 447.3679 390.3007 L 447.5566 391.6667 L 449.2012 392.7091 L 451.5198 396.1241 L 453.2991 395.4051 L 452.9756 397.3822 L 454.1618 397.4541 L 456.076 396.5554 L 456.8848 397.9214 L 458.125 397.6338 L 458.799 398.1371 L 458.8529 399.0717 L 459.8235 399.4671 L 460.0931 400.4017 L 464.1371 400.4377 L 464.6493 400.1141 L 464.9728 397.3822 L 464.1101 395.2973 L 465.3233 395.0097 L 466.0782 392.7091 L 465.0537 391.3072 L 465.4851 390.8039 L 464.9459 390.1928 L 465.3503 389.5458 L 464.9189 389.1504 L 465.4851 388.8988 L 465.1346 388.3955 L 465.6468 388.3236 L 465.2155 387.7485 L 466.3478 387.3531 L 466.7252 385.34 L 469.3134 384.4414 L 469.3403 383.5427 L 470.904 382.2127 L 471.3893 383.0754 L 471.5511 385.376 L 471.2545 388.5033 L 472.3868 388.4674 L 472.7373 390.5164 L 473.7618 390.6961 L 474.2201 391.6667 L 474.5976 396.1241 L 475.9186 398.9998 L 476.1343 397.7776 L 477.9136 397.0227 L 478.4798 394.794 L 479.7469 393.5718 L 479.6121 392.2418 L 480.2592 392.0621 L 481.3645 389.1144 L 481.5532 385.0884 L 484.3841 387.4249 L 484.8424 387.1733 L 484.5997 386.742 L 485.5433 384.01 L 485.8399 384.6211 L 488.0506 384.657 L 489.2099 385.376 L 490.8545 385.4479 L 491.4206 384.8008 L 493.9009 385.2681 L 494.3862 385.8792 L 495.4107 385.6995 L 495.4916 383.1473 L 494.9254 381.961 L 495.3837 381.314 L 496.3273 381.6735 L 496.7587 378.6899 L 498.3763 377.3599 L 497.4327 374.9514 L 498.1067 371.896 L 498.9694 372.3992 L 498.7268 374.1606 L 499.6165 373.5495 L 499.9939 371.3568 L 499.4547 370.2784 L 501.0723 366.7915 L 499.6434 364.9582 L 500.5601 362.9812 L 502.2586 361.8668 L 502.2316 360.6446 L 502.9056 359.6022 L 502.5012 357.2297 L 501.1532 357.2656 L 501.5846 359.027 L 500.7488 359.4943 L 499.4278 357.7689 L 498.4033 357.4813 L 499.4547 358.9551 L 499.0503 359.5662 L 497.6754 360.1054 L 496.7317 359.7819 L 496.1117 361.4355 L 494.9524 360.6087 L 495.8151 359.3146 L 495.8151 358.38 L 494.3593 359.2068 L 493.9549 358.0565 L 494.9793 357.1938 L 494.8176 356.331 L 495.4107 355.9356 L 495.896 354.2461 L 495.3568 350.5077 L 492.4181 349.9325 L 491.9059 349.4293 L 491.4745 347.3084 L 490.5309 346.6254 L 490.6657 348.3149 L 489.6952 349.5012 L 485.3816 348.8541 L 485.786 344.1091 L 486.2173 343.9294 L 486.4869 342.5634 L 485.7321 339.1844 L 481.8498 339.1126 L 480.9871 334.9787 L 479.5582 334.5114 L 478.318 334.9787 L 477.9945 333.4689 L 477.3475 333.433 L 476.5387 335.0146 L 475.9456 334.9427 L 472.926 330.8448 L 472.1172 328.9396 L 471.1467 328.5083 L 470.1761 325.4169 L 470.958 322.1098 L 471.9016 321.1751 L 471.4163 319.8451 L 472.4408 319.234 L 471.3084 316.6099 L 468.882 316.6459 L 469.2595 314.7047 L 468.882 314.1655 L 468.8011 311.6133 L 470.5805 310.9303 L 472.3329 305.9337 L 474.8402 306.8683 L 476.5656 305.3226 L 475.8647 301.3685 L 474.0044 301.2247 L 474.1392 297.8098 L 471.2006 296.5157 L 469.6639 296.4797 L 468.7472 295.6889 L 469.3403 294.4667 L 468.8011 290.9799 L 469.583 289.9015 L 471.8207 290.4048 L 472.6564 292.5256 L 475.1098 291.555 L 476.1343 289.9734 L 476.1612 288.5715 L 475.0289 287.0617 L 471.5241 285.5519 L 471.5511 284.2579 L 472.7643 283.3232 L 473.0878 281.7416 L 472.252 280.2318 L 470.7692 280.1599 L 470.1761 280.9508 L 468.909 280.5194 L 468.5315 279.8005 L 467.0218 280.4475 L 465.4042 279.8005 L 463.9753 280.4835 L 462.2229 279.5848 L 461.6567 281.3462 L 458.1789 283.5749 L 456.1838 283.7906 L 453.9462 281.1664 L 449.6865 282.3527 L 448.9046 279.8724 L 446.2086 278.8299 L 446.1008 277.6077 L 445.3998 277.1045 L 445.3998 275.6306 L 444.618 275.7385 L 443.27 277.2842 L 441.7602 276.3496 L 438.2015 276.5653 L 438.0397 273.5817 L 437.3118 272.7549 L 435.3707 275.8104 L 433.9957 276.8528 L 433.2409 276.6372 L 433.4565 274.5522 L 436.2065 272.036 L 436.9074 272.036 L 438.9025 267.7224 L 439.8191 268.2975 L 439.8461 265.5656 L 437.3657 264.8107 L 436.53 266.608 L 435.8829 266.8956 L 435.0472 265.3858 L 434.0227 266.0688 L 433.3217 265.1342 L 432.0816 265.0983 L 432.3242 263.6604 L 434.0766 263.6963 L 434.7506 262.8696 L 434.2114 260.8206 L 435.5864 260.4252 L 434.3732 258.1605 L 434.4541 255.2848 L 435.5055 254.6737 L 434.0766 252.9123 L 434.4271 251.5823 L 434.1305 250.7555 L 434.5349 250.0725 L 432.3512 249.5693 L 430.8684 250.6477 L 429.2508 249.6052 L 427.2288 250.0725 L 425.4224 247.8079 L 425.045 246.2622 L 426.7165 245.0759 L 426.3121 243.0989 L 427.1748 242.2721 L 426.42 240.5826 L 426.393 239.3604 L 425.1259 238.7134 L 425.6381 236.8082 L 425.1798 235.0827 L 426.7435 233.0697 L 427.9836 232.9978 L 427.9836 231.4521 L 426.393 231.3802 L 425.4494 229.7626 L 422.996 229.5829 L 423.1848 228.7561 L 424.4788 228.2888 L 424.3171 226.3836 L 423.8588 225.8444 L 422.9421 227.498 L 420.5157 228.2169 L 420.4348 226.7431 L 419.5182 226.2399 L 419.5452 223.0765 L 420.1113 222.3217 L 420.7853 218.5113 L 422.2951 217.0375 L 422.322 216.2826 L 420.5427 217.1094 L 420.1652 216.3905 L 419.653 216.6421 L 419.0599 213.5507 L 417.7119 214.5212 L 417.0379 214.2696 L 417.6849 210.6749 L 416.7413 209.8841 L 416.984 208.2306 L 414.1262 207.8711 L 414.7732 205.3548 L 415.8786 203.9888 L 416.6604 203.9529 L 417.1996 202.8026 L 415.5011 201.3288 L 414.6923 201.7961 L 414.5306 199.0282 L 416.283 197.3746 L 417.1996 197.4106 L 417.7388 198.1295 L 417.604 201.9039 L 417.9276 202.515 L 418.6824 201.9399 L 418.7364 198.7766 L 419.0868 197.9498 L 419.7339 197.9138 L 420.2192 199.8909 L 420.8392 200.3223 L 422.5647 198.0936 L 424.6406 202.9464 L 426.393 204.4921 L 427.5253 204.2045 L 428.2802 203.234 L 428.7385 200.4661 L 427.9567 199.5674 L 425.5033 198.8844 L 425.045 197.0152 L 425.6381 196.0446 L 428.2532 197.1949 L 429.0081 194.427 L 429.5473 193.8159 L 433.2139 196.44 L 434.8045 195.6492 L 436.1256 196.1525 L 437.0422 196.7995 L 437.2579 197.7701 L 439.1181 199.2079 L 440.6279 196.6198 L 441.3019 198.0217 L 442.3264 198.8485 L 444.4293 199.2079 L 444.9146 198.5968 L 444.8337 197.8779 L 443.7014 197.3027 L 443.8901 196.7635 L 445.0763 196.6198 L 443.9979 195.4335 L 443.944 193.3846 L 445.1033 191.4794 L 444.3484 190.365 L 446.4782 189.5742 L 445.6694 187.4893 L 444.1866 186.6625 L 444.3214 185.4403 L 444.6989 186.2671 L 445.265 185.3325 L 445.0494 183.607 L 443.6474 182.7084 L 442.3803 183.5352 L 442.3803 184.3979 L 441.7602 184.5417 L 442.2185 185.656 L 439.9269 187.7409 L 439.8191 187.2377 L 440.4392 186.6625 L 440.0617 184.6136 L 440.4661 182.4927 L 441.3828 182.1692 L 441.8141 181.3424 L 440.8975 181.0189 L 440.4661 179.4732 L 439.6843 179.6889 L 439.5225 178.934 L 441.5715 177.1726 L 442.9734 175.1955 L 442.569 173.542 L 443.5126 173.0747 L 444.0788 171.5649 L 444.1058 170.9897 L 442.8386 169.8754 L 443.8362 168.7611 L 443.2969 167.7905 L 443.8901 166.1369 L 444.9954 165.2383 L 444.2675 164.8788 L 444.1866 164.1599 L 445.993 162.2547 L 445.4807 160.0619 L 444.5371 158.3365 L 446.2626 156.7908 L 446.5322 155.317 L 446.1817 154.3464 L 447.4488 151.7583 L 446.8826 151.1831 L 447.1253 149.7452 L 446.613 148.0917 L 446.9635 146.4022 L 446.64 145.827 L 444.3484 145.5395 L 443.9979 145.9708 L 442.5421 145.2878 L 440.2774 145.827 L 439.7652 145.3597 L 439.3338 146.4381 L 437.3657 145.9708 L 436.8535 147.0492 L 435.9099 146.6898 L 435.3707 147.3728 L 432.486 147.0852 L 432.1625 146.4381 L 430.8953 147.0852 L 429.9248 145.827 L 427.067 146.6898 L 424.6676 146.4741 L 422.7804 147.0133 L 420.5966 146.6538 L 420.327 147.8041 L 418.6824 147.3728 L 418.7364 147.912 L 417.8736 147.7322 L 414.4767 150.8236 L 405.2024 154.0948 L 403.9623 156.9346 L 400.1878 156.8627 L 394.1488 154.598 L 390.3205 151.3269 L 389.1881 151.6504 L 381.181 150.2844 L 374.7645 144.6768 L 372.0685 140.6867 L 370.2892 139.141 L 367.054 140.6507 L 365.9216 140.1115 L 364.978 140.9383 L 358.5346 138.458 L 357.2944 138.6018 L 353.5739 137.4874 L 352.5225 138.2423 L 352.2529 139.2488 L 352.5764 141.801 L 351.3363 148.1636 L 351.2823 150.5001 L 352.2799 151.4347 L 351.7137 152.6569 L 352.3068 154.0588 L 353.7627 155.4967 L 354.0323 159.0914 L 352.7921 159.8103 L 353.0617 160.8528 L 352.4416 164.0161 L 352.2799 169.6957 L 351.6328 170.7381 L 352.0372 173.4701 L 352.4416 174.1171 L 356.0543 175.1955 L 357.8336 177.8915 L 358.1841 179.2215 L 361.5002 176.202 L 361.635 177.9994 L 363.3065 178.215 L 363.4683 180.4078 L 363.1717 180.6594 L 361.3923 179.6889 L 360.3948 180.9829 L 357.9415 180.5156 L 357.8067 182.6724 L 358.5076 183.643 L 358.4807 184.7573 L 357.0248 186.8423 L 356.9709 188.4239 L 356.2699 188.7834 L 355.4611 188.1723 L 355.3803 189.2147 L 354.4636 189.6461 L 352.3607 190.2572 L 351.498 188.9991 L 350.851 185.7998 L 348.6942 186.1952 L 348.2628 187.2017 L 348.6402 188.2442 L 348.2358 188.1723 L 347.3192 190.1134 L 345.3242 189.8618 L 345.5668 191.084 L 344.6771 191.6232 L 343.9222 193.6362 L 344.5962 194.7865 L 344.731 196.3322 L 344.785 198.3452 L 344.1918 199.0282 L 344.1379 200.0347 L 345.9442 201.5804 L 345.6477 202.9464 L 346.2947 205.7143 L 345.3242 211.969 L 343.8144 213.4069 L 343.7874 214.018 L 344.4614 214.5212 L 342.2238 217.4329 L 342.3316 219.1943 L 343.0056 220.8119 L 344.5423 221.7106 L 345.2972 219.7694 L 346.8609 220.5603 L 346.3217 222.2857 L 350.0152 224.1549 L 350.7971 228.145 L 348.5054 228.5045 L 347.3192 228.2888 L 346.4834 227.3542 L 344.9467 227.3902 L 343.8683 228.7561 L 344.084 230.4456 L 345.0276 231.56 L 344.7041 232.5305 L 347.1305 234.6154 L 347.5079 235.6579 L 346.6182 238.6774 L 346.1869 242.8113 L 345.1354 244.4648 L 345.7286 247.0171 L 345.1354 249.1739 L 343.383 250.9353 L 341.2532 251.6182 L 337.4518 251.2228 L 333.8661 250.0725 L 333.8661 251.3307 L 335.6725 252.3731 L 335.1872 252.5888 L 335.4298 253.8469 L 333.4617 254.4221 L 332.5181 257.154 L 330.604 256.8305 L 330.4422 257.3338 L 330.4961 257.873 L 333.0843 257.873 L 334.648 257.2259 L 334.0279 259.0233 L 335.2681 259.4546 L 333.1113 259.9219 L 332.6799 260.8206 L 331.4397 261.1441 L 332.0598 262.1866 L 331.8441 265.1702 L 329.8761 266.4283 L 330.5231 268.8727 L 331.0353 269.1962 L 330.8466 269.8432 L 332.3564 270.5622 L 331.278 271.6765 L 329.8761 270.6341 L 328.6898 271.3889 L 327.5845 270.7778 L 326.8026 271.1014 L 324.8885 273.8693 L 325.5894 274.3366 L 324.1066 276.1339 L 324.6728 277.6437 L 323.9179 279.8005 L 324.3223 281.7775 L 324.0527 283.2873 L 323.0552 283.7546 L 321.4106 283.4311 L 319.8739 284.5454 L 319.3347 285.3722 L 319.3886 286.5585 L 318.8224 286.8101 L 318.9033 288.1761 L 317.744 288.3198 L 317.5553 286.9539 L 316.0725 286.4866 L 315.5603 285.3363 L 314.2932 284.3298 L 313.3765 285.6598 L 312.0016 284.9768 L 311.6241 285.3003 L 311.5163 286.5225 L 310.8153 286.0552 L 309.0899 287.0258 L 305.3155 284.3298 L 301.7298 285.0846 L 304.6684 289.0747 L 305.9895 292.0583 L 306.0164 294.3589 L 306.5017 294.8262 L 306.0973 295.9405 L 307.2027 295.8327 L 307.7149 296.4438 L 306.7174 296.5157 L 307.3375 297.4503 L 305.1537 298.0614 L 305.8007 298.996 L 305.2346 300.7574 L 305.6659 303.3096 L 309.2516 303.5612 L 315.6142 302.8423 L 317.097 304.388 L 316.6117 305.2867 L 316.6387 307.1559 L 315.4255 310.2473 L 316.5578 312.9074 L 316.396 314.2015 L 317.4475 316.3583 L 316.8544 319.7373 L 318.8494 323.1163 L 319.119 325.9201 L 319.6043 326.8188 L 319.7391 330.4853 L 319.1729 330.8448 L 319.1729 331.4559 L 321.168 334.6552 L 320.7096 337.1714 L 321.2219 340.191 L 320.1704 344.1451 L 319.0651 344.0732 L 317.8788 346.6254 L 317.07 345.7627 L 316.5039 346.1941 L 316.1534 351.622 L 314.8593 353.8148 L 317.1779 356.6546 L 318.9572 361.3636 L 321.9498 361.723 L 322.0037 362.5139 L 320.6557 364.2753 L 322.3812 370.6019 L 323.136 370.7457 L 324.8076 375.4187 L 326.9374 375.0233 L 326.5869 375.8142 L 328.2854 382.1767 L 329.7143 380.3794 L 331.6015 380.3434 L 333.0573 383.5068 L 334.2975 383.2551 L 335.2681 384.3695 L 337.5866 385.4479 L 337.7754 386.2747 L 336.1847 388.0001 L 337.1283 389.5458 L 338.9616 388.6831 L 341.3071 391.415 L 341.6846 393.5718 L 342.5742 394.6143 L 344.2727 394.6143 L 344.8658 393.3202 L 346.9687 395.2973 L 345.5938 396.9508 L 344.1649 397.3462 L 343.5718 398.6403 L 342.062 399.8625 L 341.361 402.3428 L 338.2337 402.3788 L 337.8023 403.5291 L 338.3415 406.5845 L 340.4444 407.1597 L 340.7949 412.1922 L 341.6037 412.6595 L 343.0865 417.3326 L 346.133 419.777 L 348.4246 419.0221 L 342.9786 443.2861 L 344.5154 447.1324 L 344.1379 447.3122 L 344.2727 447.9592 L 346.2947 448.6422 L 348.128 448.4984 L 347.9932 451.0147 L 350.8779 457.9884 L 350.5814 461.583 L 352.0103 463.8477 L 354.8411 465.2496 L 357.0787 465.0699 L 357.4292 465.9326 L 358.6424 466.6875 L 358.8851 468.0534 L 359.613 468.4489 L 361.1227 467.6221 L 365.2207 463.3444 L 367.1618 462.7333 L 367.728 461.5471 L 368.7794 460.8281 L 370.6936 461.1876 L 372.2842 462.5536 L 375.0072 462.6974 L 375.9238 460.8641 L 378.0537 460.3968 L 378.0537 463.5242 L 377.4336 464.8182 L 378.9433 465.4653 L 379.0242 467.2986 L 382.7717 465.8966 L 383.5805 463.8836 L 384.4432 464.6744 L 385.7912 464.8542 L 387.1931 467.0829 L 389.7813 466.6875 L 391.2641 463.8117 L 391.6415 461.6909 L 394.8767 457.4851 L 395.1733 457.4492 L 395.2542 458.4557 L 395.7664 458.5995 L 396.71 456.8021 L 396.2247 453.8904 L 396.2786 449.469 L 397.2492 449.3611 L 398.8668 446.737 L 400.2687 445.8024 L 401.8324 446.4854 L 404.124 446.1259 L 406.2269 448.7141 L 408.5185 450.152 L 409.2734 451.2304 L 409.1655 451.9853 L 410.217 452.129 L 410.3518 452.9199 L 412.1042 453.4591 L 412.7512 455.3642 L 413.9914 455.6159 L 415.0967 455.0407 L 419.3295 456.227 L 422.1603 458.887 L 423.9666 459.3543 L 423.4004 461.4752 L 421.8368 463.8836 L 421.7828 464.8901 L 425.3955 466.8312 L 428.5768 469.6351 L 428.4959 472.0435 L 428.0106 472.6546 L 430.7066 475.2068 L 433.16 476.2493 L 435.5864 479.6283 L 437.5545 479.7002 L 439.0642 478.4061 Z" fill="#f4c0c7" fill-opacity="1" stroke="#000000" stroke-width="0.4" paint-order="fill" stroke-opacity="1" stroke-dasharray="" stroke-linecap="butt" stroke-linejoin="miter" stroke-miterlimit="10" clip-path="none"/>
<path d="M 528.2211 352.1972 L 528.3828 348.0992 L 528.6524 347.6319 L 530.3509 347.8476 L 531.4563 346.9489 L 532.0764 348.0633 L 532.8582 348.243 L 532.7234 350.3998 L 534.5297 351.9815 L 536.0125 350.7952 L 537.4145 351.9455 L 538.385 351.7658 L 538.9781 350.1841 L 539.8678 350.0763 L 540.8114 348.4946 L 541.4585 349.1057 L 541.8089 350.7952 L 544.6667 352.8083 L 546.7157 350.7593 L 548.9533 352.1253 L 549.8161 351.5142 L 552.0538 351.9096 L 553.6444 350.5796 L 555.8282 351.5142 L 556.61 350.5436 L 556.9874 348.279 L 556.5561 346.4097 L 557.1762 344.3967 L 558.2546 342.2759 L 559.2521 341.8805 L 562.029 343.8575 L 560.627 345.6908 L 560.7349 348.0992 L 561.1932 348.6744 L 563.2152 348.962 L 565.2372 347.4522 L 565.7764 348.0633 L 566.6122 347.9195 L 567.9332 346.4457 L 570.6292 345.7986 L 573.3522 348.5306 L 573.5139 349.5371 L 575.6438 350.7593 L 575.9943 352.0534 L 577.1266 351.658 L 577.0187 352.6285 L 577.6388 352.8442 L 577.8545 350.8312 L 578.5824 352.4128 L 579.2295 352.7004 L 579.1216 349.7528 L 582.6264 350.4717 L 584.0823 348.8182 L 585.646 348.9979 L 586.1582 346.6254 L 587.2096 345.2235 L 587.2096 344.6484 L 585.8347 343.4981 L 585.2146 342.1321 L 585.8886 340.8739 L 585.1607 339.7596 L 585.8616 339.0766 L 585.5651 338.106 L 585.9156 337.495 L 587.614 339.0047 L 588.1532 340.191 L 589.2316 339.8674 L 590.0135 338.7531 L 590.6066 339.508 L 591.2267 338.7171 L 592.4938 338.6093 L 593.734 340.4426 L 595.055 341.0537 L 596.2952 340.1191 L 598.0476 337.1355 L 600.7705 339.7955 L 602.6847 338.825 L 603.3857 341.3772 L 604.545 340.2988 L 606.0278 341.2694 L 607.2679 334.0081 L 610.1796 333.4689 L 610.584 334.4395 L 611.3119 333.9362 L 611.8511 334.4395 L 612.2555 333.2532 L 612.9026 332.9657 L 613.6305 328.7599 L 610.8806 327.6815 L 611.231 325.5966 L 613.8462 326.639 L 615.2211 325.6685 L 616.1378 323.7993 L 615.6794 322.8287 L 615.8412 319.5216 L 613.1452 319.234 L 610.1257 315.8191 L 610.7188 315.172 L 611.6894 315.1361 L 611.9859 314.3093 L 611.9859 311.0382 L 612.7138 308.1984 L 611.6354 306.7965 L 610.7458 306.5448 L 610.0448 308.1265 L 610.3683 309.2768 L 608.1576 311.9368 L 606.5939 311.6852 L 606.6478 313.4466 L 604.8415 311.6493 L 604.1945 312.7277 L 599.5034 308.0186 L 596.43 307.6951 L 595.5403 308.6297 L 594.8663 310.6787 L 593.7879 310.3192 L 594.0305 308.7376 L 593.6801 307.7311 L 588.989 307.9827 L 589.1238 307.3357 L 591.8198 305.8978 L 591.712 303.8848 L 590.2561 301.5123 L 590.6066 299.8947 L 591.5502 299.8228 L 592.8173 301.9436 L 593.6531 301.4763 L 593.8418 299.3914 L 593.1678 298.5287 L 591.8737 299.715 L 591.2537 299.1039 L 591.038 296.9471 L 588.3689 297.2346 L 587.3444 296.1203 L 591.712 292.8491 L 593.5722 293.4243 L 593.7879 291.2675 L 595.4594 290.0812 L 595.756 287.9963 L 597.0501 287.9244 L 596.8883 284.9768 L 596.403 283.8265 L 594.1653 283.6468 L 595.1089 280.088 L 596.7265 278.6861 L 597.2927 277.2842 L 596.9692 271.2092 L 595.2168 270.2386 L 595.5673 269.34 L 595.1359 268.7289 L 593.707 268.8727 L 593.2757 267.7583 L 592.1433 267.2551 L 591.6581 268.8367 L 589.7978 270.3824 L 589.3664 271.5327 L 591.3076 273.6176 L 592.0894 277.392 L 591.1189 277.4999 L 589.3395 280.5194 L 589.8787 282.6762 L 586.0234 283.2873 L 585.619 282.5684 L 585.9156 281.0227 L 582.222 278.3985 L 582.0603 276.062 L 581.3593 275.5228 L 581.2245 274.5882 L 582.1142 272.6111 L 581.8446 271.2811 L 582.7343 269.8432 L 583.3274 267.3629 L 586.0504 266.1407 L 584.4597 264.8107 L 584.1901 263.229 L 583.4892 264.0918 L 581.575 263.6604 L 581.1436 261.899 L 580.6584 261.6474 L 580.3079 259.0592 L 578.7981 257.837 L 578.906 255.824 L 579.6608 256.4351 L 580.254 254.9972 L 578.852 252.0137 L 578.1511 251.4745 L 578.178 250.3242 L 577.3153 250.2163 L 577.4231 248.5268 L 576.6683 249.2817 L 574.835 249.2458 L 574.5115 247.4125 L 573.487 247.6641 L 572.0311 244.7884 L 571.0606 244.3211 L 569.0386 245.1119 L 568.9038 244.0694 L 567.2862 243.6021 L 565.399 244.5727 L 565.4529 243.7819 L 564.0779 243.8178 L 563.6735 242.344 L 562.8917 241.8767 L 561.328 242.9191 L 561.5706 244.7165 L 559.306 247.7719 L 558.8207 250.8634 L 558.3624 250.6836 L 557.7154 248.9222 L 556.3404 250.1444 L 555.6394 250.1085 L 555.0733 248.7425 L 556.4213 248.1674 L 555.262 247.1968 L 555.1002 245.2916 L 552.3503 247.3765 L 550.3822 247.6282 L 549.9509 241.7329 L 548.9803 239.7199 L 548.0637 239.8996 L 545.4485 238.6055 L 543.5344 239.0728 L 543.3726 240.0074 L 542.9682 238.6774 L 542.3751 239.1088 L 542.0516 240.5467 L 541.3506 240.6904 L 539.3825 239.4323 L 538.3311 237.9944 L 539.2477 235.7298 L 538.7355 234.1122 L 538.8433 230.5894 L 538.4659 230.3018 L 537.4414 231.6319 L 537.1718 230.5175 L 538.0345 229.7267 L 541.0271 229.7267 L 541.5124 228.3248 L 542.9952 227.498 L 543.6692 223.7955 L 543.2378 222.8968 L 542.1055 222.5014 L 541.2428 219.8773 L 540.1105 218.6192 L 539.1938 218.5832 L 538.6007 219.2662 L 536.9292 219.1584 L 536.8213 217.7205 L 535.716 217.5048 L 536.0934 215.0245 L 534.7993 213.8382 L 535.4733 211.286 L 536.6056 210.9625 L 536.363 208.6619 L 536.7135 207.1162 L 535.0959 207.26 L 533.7209 205.5705 L 533.1278 201.6882 L 533.3974 200.0706 L 534.2062 199.7831 L 534.1792 198.6687 L 536.0934 198.2374 L 536.0934 197.5544 L 538.0076 196.5479 L 539.4634 197.3387 L 541.4585 196.0087 L 539.8139 195.3976 L 538.1154 193.9956 L 537.6032 192.7016 L 536.2282 193.3127 L 534.4219 192.378 L 533.5861 193.3486 L 532.8043 192.7016 L 532.6695 189.9696 L 532.0494 189.5383 L 531.8876 188.2442 L 532.4268 186.9141 L 531.6989 186.1593 L 533.5592 185.1887 L 532.7773 183.5352 L 532.7504 182.313 L 531.4293 180.8032 L 533.2356 179.7248 L 534.5836 180.5156 L 535.8508 179.5091 L 537.6841 182.313 L 539.1938 183.5352 L 540.8384 182.6005 L 541.8089 183.643 L 542.7525 183.5352 L 544.0736 182.1332 L 543.9388 181.3065 L 542.8334 180.1202 L 542.8334 178.3588 L 542.2942 176.885 L 543.3996 175.519 L 543.103 174.5485 L 540.0296 172.5355 L 539.4365 171.2414 L 538.1424 170.5584 L 536.7135 167.9343 L 539.0051 165.8853 L 538.6277 163.9082 L 538.9242 162.039 L 538.0076 161.3201 L 538.3041 160.1698 L 537.1988 159.4868 L 538.0076 155.2091 L 539.5982 155.4248 L 540.9462 153.304 L 541.9977 153.5196 L 541.755 152.1537 L 542.8873 151.1112 L 541.9707 149.6015 L 540.7305 148.6668 L 541.4315 147.0492 L 540.2992 147.6244 L 537.0909 147.4087 L 536.4439 148.559 L 531.4563 150.5001 L 528.976 150.0688 L 525.1476 150.608 L 523.8535 149.6733 L 522.5325 150.3204 L 520.0791 149.7812 L 517.4101 151.938 L 516.0891 151.7942 L 515.0376 152.7288 L 514.121 152.0818 L 511.398 152.8367 L 508.675 151.6145 L 503.5796 150.9315 L 503.337 150.2844 L 502.2316 150.3563 L 502.0159 149.4577 L 500.8566 150.4282 L 498.2954 148.9904 L 498.1876 147.0133 L 496.3273 145.7911 L 495.5994 143.6702 L 493.5235 144.5689 L 492.0407 143.5983 L 488.8055 145.2519 L 487.2418 147.7322 L 487.781 148.523 L 487.4036 149.0982 L 485.6512 148.7747 L 483.764 149.8531 L 483.1708 149.1341 L 482.8473 149.8531 L 481.3376 149.1701 L 481.2836 147.6244 L 480.7714 147.9479 L 480.5827 148.9544 L 479.2347 148.8466 L 478.9381 150.572 L 480.2052 149.7452 L 482.362 151.1831 L 482.2272 152.5491 L 481.3915 152.4772 L 480.6096 153.3399 L 479.2616 152.2615 L 478.6146 153.0883 L 478.4798 152.2256 L 477.1857 151.9739 L 476.997 150.5001 L 476.2421 149.7093 L 474.7863 149.9609 L 473.9775 148.559 L 472.6834 148.3793 L 472.1712 148.9185 L 471.7668 150.8955 L 470.6344 150.5361 L 470.1761 149.5655 L 469.7987 150.8596 L 470.1491 151.5066 L 469.6099 152.4412 L 467.7767 150.9674 L 467.2644 149.7812 L 466.4556 149.5655 L 465.6199 150.1407 L 465.1885 149.7452 L 464.7302 147.9479 L 466.0782 146.9054 L 466.1321 146.0787 L 464.9459 146.9054 L 463.3013 146.7976 L 463.6248 145.4676 L 463.1665 145.3238 L 461.8994 149.0263 L 460.821 149.1701 L 460.9827 147.8401 L 460.2548 146.6538 L 460.6053 145.4316 L 460.147 144.497 L 460.7131 143.7421 L 460.4975 142.1605 L 459.3921 142.0526 L 458.6911 142.8794 L 457.8554 140.435 L 456.6961 138.7455 L 455.8334 138.9612 L 457.2083 140.9742 L 456.8848 141.1899 L 457.1544 141.6213 L 456.8309 143.3827 L 455.9682 143.85 L 455.7255 144.6768 L 456.2108 146.546 L 454.4584 146.0787 L 453.0026 146.9414 L 450.3066 146.9054 L 449.6865 146.2584 L 448.5811 146.1506 L 447.961 146.7617 L 447.4758 145.0362 L 447.1522 145.18 L 446.613 148.0917 L 447.1253 149.7452 L 446.8826 151.255 L 447.4488 151.7583 L 446.1817 154.3464 L 446.5322 155.317 L 446.2626 156.7908 L 444.5371 158.2287 L 445.993 162.2547 L 444.1866 164.1599 L 444.2675 164.8788 L 444.9954 165.2383 L 443.8901 166.1369 L 443.2969 167.7905 L 443.8362 168.7611 L 442.8386 169.8754 L 444.1058 170.9897 L 444.0788 171.5649 L 443.5126 173.0747 L 442.569 173.542 L 442.9734 175.1955 L 440.1696 178.6464 L 439.5225 178.7902 L 439.6304 179.6529 L 440.4122 179.4372 L 440.8705 180.9829 L 441.8141 181.3424 L 441.3828 182.1692 L 440.4661 182.4927 L 440.0617 184.6136 L 440.4392 186.6625 L 439.8191 187.2377 L 439.9269 187.7409 L 442.2185 185.656 L 441.7602 184.5417 L 442.3803 184.3979 L 442.3803 183.5352 L 443.6474 182.7084 L 445.0494 183.607 L 445.265 185.3325 L 444.6989 186.2671 L 444.3214 185.4403 L 444.1866 186.6625 L 445.6694 187.4893 L 446.4782 189.5742 L 444.3484 190.365 L 445.1033 191.4794 L 443.944 193.3846 L 443.9979 195.4335 L 445.0763 196.6198 L 443.8901 196.7635 L 443.7014 197.3027 L 444.9146 197.9857 L 444.6989 198.9922 L 442.1107 198.7406 L 440.6279 196.6198 L 439.1181 199.2079 L 437.2579 197.7701 L 437.0422 196.7995 L 436.1256 196.1525 L 434.8045 195.6492 L 433.2139 196.44 L 429.5473 193.8159 L 429.0081 194.427 L 428.2532 197.1949 L 425.6381 196.0446 L 425.018 197.123 L 425.5572 198.9203 L 427.9567 199.5674 L 428.6846 200.2863 L 428.3072 203.198 L 427.1479 204.3843 L 426.0964 204.4202 L 425.1798 203.7013 L 422.5647 198.0936 L 420.8392 200.3223 L 420.2192 199.8909 L 419.7339 197.9138 L 419.0868 197.9498 L 418.7364 198.7766 L 418.8442 201.185 L 418.1702 202.551 L 417.604 201.9399 L 417.8197 198.8485 L 417.3884 197.5544 L 415.6629 197.6622 L 414.4767 199.2798 L 414.7732 201.9399 L 415.5011 201.3288 L 417.1996 202.7666 L 416.6604 203.9529 L 415.9325 203.9529 L 414.8541 205.247 L 414.1262 207.7273 L 416.984 208.2306 L 416.7413 209.8841 L 417.6849 210.6749 L 417.0109 214.2337 L 417.7119 214.5212 L 419.0599 213.5507 L 419.68 216.678 L 420.1652 216.3905 L 420.7044 217.1453 L 422.2681 216.2107 L 422.4029 216.678 L 421.001 218.044 L 420.5427 219.1224 L 420.1383 222.2138 L 419.5452 223.0765 L 419.5452 226.3477 L 420.4348 226.7431 L 420.7314 228.3607 L 422.9421 227.498 L 423.3196 226.2758 L 423.8857 225.8444 L 424.3171 226.3836 L 424.4788 228.2888 L 423.1848 228.7561 L 422.996 229.5829 L 425.4494 229.7626 L 426.393 231.3802 L 427.6871 231.2005 L 428.1184 231.9913 L 427.768 232.4227 L 427.9836 232.9978 L 426.7435 233.0697 L 425.1798 235.0827 L 425.6381 236.8082 L 425.1259 238.7134 L 426.393 239.3604 L 426.42 240.5826 L 427.1748 242.2721 L 426.3121 243.0989 L 426.7165 245.0759 L 425.045 246.2622 L 425.4224 247.8079 L 427.2288 250.0725 L 429.2508 249.6052 L 430.8684 250.6477 L 432.2164 249.6052 L 434.4541 249.9287 L 434.1036 252.9842 L 435.5055 254.6737 L 434.4271 255.3567 L 434.4001 258.4841 L 435.5864 260.4252 L 434.2114 260.8206 L 434.7506 262.8696 L 434.0766 263.6963 L 432.3242 263.6604 L 432.0816 265.0983 L 433.3217 265.1342 L 434.0227 266.0688 L 435.0472 265.3858 L 435.8829 266.8956 L 436.53 266.608 L 437.3657 264.8107 L 439.873 265.6734 L 439.8191 268.2975 L 438.9025 267.7224 L 436.9074 272.036 L 436.2065 272.036 L 433.4565 274.5522 L 433.1869 276.5293 L 433.9957 276.8528 L 434.9663 276.2058 L 437.3118 272.7549 L 438.0397 273.5817 L 438.2015 276.5653 L 441.7602 276.3496 L 443.27 277.2842 L 444.618 275.7385 L 445.3998 275.6306 L 445.3998 277.1045 L 446.1008 277.6077 L 446.2086 278.8299 L 448.9046 279.8724 L 449.6865 282.3527 L 453.9462 281.1664 L 456.1838 283.7906 L 458.1789 283.5749 L 461.6567 281.3462 L 462.2229 279.5848 L 463.9753 280.4835 L 465.4042 279.8005 L 467.0218 280.4475 L 468.5315 279.8005 L 468.909 280.5194 L 470.1761 280.9508 L 470.8232 280.1599 L 472.279 280.2678 L 473.0878 281.7416 L 472.7643 283.3232 L 471.5511 284.2579 L 471.5241 285.5519 L 475.0289 287.0617 L 476.1612 288.5715 L 476.1343 289.9734 L 475.1098 291.555 L 472.6564 292.5256 L 471.8207 290.4048 L 469.583 289.9015 L 468.8011 290.9799 L 469.3403 294.4667 L 468.7472 295.6889 L 469.6639 296.4797 L 471.2006 296.5157 L 474.1392 297.8098 L 474.0044 301.2247 L 475.8647 301.3685 L 476.5656 305.3945 L 474.8402 306.8683 L 472.3329 305.9337 L 470.5805 310.9303 L 468.8011 311.6133 L 468.882 314.1655 L 469.2595 314.7047 L 468.882 316.6459 L 471.3084 316.6099 L 472.4408 319.3059 L 471.4163 319.8451 L 471.9016 321.1751 L 470.8501 322.3973 L 470.23 325.8123 L 471.1467 328.5083 L 472.1172 328.9396 L 472.926 330.8448 L 475.9456 334.9427 L 476.5387 335.0146 L 477.3475 333.433 L 477.9945 333.4689 L 478.318 334.9787 L 479.5582 334.5114 L 480.9871 334.9787 L 481.8498 339.1126 L 485.7321 339.1844 L 486.4869 342.5634 L 486.2173 343.9294 L 485.786 344.1091 L 485.3816 348.8541 L 489.6952 349.5012 L 490.6657 348.3149 L 490.5309 346.6254 L 491.4745 347.3084 L 491.9059 349.4293 L 492.4181 349.9325 L 495.3568 350.5077 L 495.896 354.2461 L 495.4107 355.9356 L 494.8176 356.331 L 494.9793 357.1938 L 493.9549 358.3081 L 494.3593 359.2068 L 495.7881 358.38 L 495.7881 359.3865 L 494.8176 360.3571 L 495.9499 361.3636 L 496.7317 359.7819 L 497.891 360.0695 L 499.4278 359.0989 L 498.3763 357.5173 L 499.4278 357.7689 L 500.8027 359.4943 L 501.5846 359.027 L 501.1532 357.2656 L 502.6899 356.7264 L 503.3639 356.9781 L 504.4154 358.6676 L 506.3295 358.9551 L 507.7045 359.8538 L 508.2437 358.0924 L 508.7559 358.3441 L 509.2682 356.8702 L 510.6701 355.7918 L 509.9691 355.0729 L 510.5892 353.8148 L 511.7755 353.671 L 512.3147 352.8083 L 514.0131 352.952 L 513.9862 354.6415 L 517.5988 354.6056 L 518.4885 355.3245 L 519.0007 353.0599 L 520.3218 352.4128 L 523.6918 353.4553 L 525.0128 352.7004 L 525.6599 354.5337 L 526.0373 354.4978 L 526.3608 353.5631 L 528.2211 352.1972 Z" fill="#7bea05" fill-opacity="1" stroke="#000000" stroke-width="0.4" paint-order="fill" stroke-opacity="1" stroke-dasharray="" stroke-linecap="butt" stroke-linejoin="miter" stroke-miterlimit="10" clip-path="none"/>
<path d="M 327.3418 248.9582 L 330.5231 248.6706 L 333.4887 250.1085 L 341.1993 251.6182 L 343.1404 251.079 L 344.8389 249.749 L 345.7286 247.089 L 345.1354 244.4648 L 346.1869 242.8113 L 346.6182 238.6774 L 347.5079 235.6579 L 347.1305 234.6154 L 344.7041 232.5305 L 345.0276 231.56 L 344.084 230.4456 L 343.8683 228.7561 L 344.9467 227.3902 L 346.4834 227.3542 L 347.3192 228.2888 L 348.5054 228.5045 L 350.7971 228.4326 L 350.0152 224.1549 L 346.3217 222.2857 L 346.8609 220.5603 L 345.2972 219.7694 L 344.5423 221.7106 L 343.0056 220.8119 L 342.3316 219.1943 L 342.2238 217.4329 L 344.4614 214.5212 L 343.7874 214.018 L 343.8144 213.4069 L 345.3242 211.969 L 346.2947 205.894 L 346.2408 204.2764 L 345.6477 202.9464 L 345.9442 201.5804 L 344.1379 200.0347 L 344.1918 199.0282 L 344.785 198.3452 L 344.731 196.3322 L 344.5962 194.7865 L 343.9222 193.6721 L 344.6771 191.6232 L 345.5668 191.084 L 345.2702 189.9696 L 347.481 190.0056 L 348.2358 188.1723 L 348.6402 188.2442 L 348.2628 187.3096 L 348.4785 186.4468 L 350.3927 185.5841 L 351.0127 186.2312 L 351.5519 189.1428 L 352.4147 190.2931 L 355.3803 189.2147 L 355.542 188.1363 L 356.6474 188.6755 L 357.2135 188.0285 L 357.0518 186.8063 L 358.4807 184.7573 L 358.5076 183.643 L 357.8067 182.6724 L 357.9415 180.5156 L 360.3948 180.9829 L 361.3923 179.6889 L 363.4683 180.4437 L 363.3065 178.215 L 361.635 177.9994 L 361.5002 176.202 L 358.1841 179.2215 L 357.8336 177.8915 L 356.0543 175.1955 L 352.4416 174.1171 L 352.0372 173.506 L 351.6328 170.7381 L 352.2799 169.6957 L 352.4416 164.0161 L 353.0617 160.8528 L 352.7921 159.8103 L 354.0323 159.1273 L 353.7896 155.6046 L 352.2799 154.0229 L 351.7137 152.6569 L 352.2529 151.2909 L 351.2823 150.5001 L 351.3902 147.4806 L 352.5764 141.801 L 352.2259 139.4285 L 352.5225 138.2423 L 344.3536 135.1509 L 342.089 136.7325 L 340.4444 134.5038 L 339.3121 134.9711 L 337.317 133.2457 L 334.1088 132.9581 L 333.0304 131.4843 L 331.952 131.4843 L 327.5036 128.6086 L 315.8299 127.7099 L 313.1339 128.4648 L 311.5702 127.7818 L 306.6904 123.5041 L 303.1856 122.3898 L 301.2715 121.0957 L 297.4162 117.5729 L 295.9873 114.841 L 293.8844 115.1285 L 290.3796 114.5175 L 282.4264 107.9751 L 280.2157 109.3411 L 276.0908 107.8314 L 275.9829 104.3086 L 275.0663 102.0439 L 272.5051 99.8152 L 269.5934 101.0374 L 268.7307 102.5831 L 267.9758 102.3315 L 267.5984 103.5896 L 267.2209 103.338 L 265.6303 104.6681 L 263.77 104.8118 L 262.6916 106.753 L 263.4196 108.4784 L 262.3412 111.426 L 262.7725 115.1285 L 259.9687 115.3802 L 259.106 113.5109 L 258.2432 112.9358 L 256.0055 113.2234 L 255.6551 113.7985 L 255.6011 115.3802 L 255.035 115.6318 L 255.1967 119.3703 L 254.8463 120.0173 L 254.8732 123.1806 L 254.1453 125.2296 L 254.1723 127.5302 L 252.5547 129.2197 L 252.5277 130.6216 L 251.4493 131.8078 L 251.8267 132.7424 L 251.0988 140.0396 L 250.2091 141.6572 L 250.8831 143.3467 L 252.9591 144.0657 L 254.9002 143.8859 L 257.1648 147.1211 L 255.3315 148.7387 L 254.6575 150.5001 L 254.5227 151.7583 L 254.9811 152.0458 L 254.0644 156.0719 L 254.6845 157.1503 L 253.9027 158.7319 L 254.2531 160.4214 L 252.5277 161.4279 L 253.013 162.9377 L 252.7973 163.5847 L 253.3635 164.5193 L 253.0669 165.7775 L 253.3904 166.6402 L 252.9051 166.9637 L 252.9321 168.114 L 253.3635 169.0846 L 254.3071 169.5878 L 255.7359 173.2184 L 258.2702 176.7772 L 258.405 179.2575 L 257.758 180.3359 L 257.9736 181.1986 L 257.3266 182.1332 L 257.3805 182.8881 L 258.8364 184.5057 L 259.0251 185.8357 L 261.128 186.2671 L 258.5937 190.0775 L 255.6281 193.097 L 256.1134 194.427 L 255.6551 196.6917 L 254.7923 196.1884 L 249.4543 196.2603 L 249.5351 198.7406 L 248.8881 201.6882 L 252.2851 202.0837 L 251.7189 206.0019 L 253.2287 210.7828 L 252.339 212.8677 L 252.4738 213.299 L 254.3071 212.2206 L 255.1428 212.9036 L 255.5472 214.018 L 255.8438 221.7825 L 255.2776 221.8903 L 255.3855 223.9393 L 256.5717 225.0896 L 259.9956 223.2563 L 262.9073 222.7171 L 264.498 223.4001 L 265.792 226.4196 L 265.846 228.6842 L 266.4391 230.3378 L 266.3312 232.6743 L 267.2209 234.1481 L 269.4316 236.0174 L 273.5296 237.2396 L 276.2256 238.7134 L 277.7623 237.0958 L 280.3235 236.5566 L 281.5367 237.5271 L 281.8063 239.1807 L 282.7769 240.1153 L 288.8698 241.6251 L 289.1125 239.6839 L 291.5658 238.0304 L 289.9752 240.5826 L 290.11 241.3375 L 293.7226 240.9061 L 293.8574 240.1512 L 294.6393 240.1153 L 295.8794 241.2656 L 299.2495 242.6316 L 303.1317 241.5532 L 305.8816 242.6316 L 310.5727 241.7329 L 312.8104 242.8113 L 313.9427 244.0335 L 314.9132 243.9616 L 317.07 245.1838 L 319.146 244.2492 L 319.9548 245.1119 L 321.1949 243.674 L 322.9743 243.0629 L 324.1336 244.4289 L 323.5944 246.5138 L 324.0797 247.3406 L 326.8565 247.736 L 327.3418 248.9582 Z" fill="#f5fc98" fill-opacity="1" stroke="#000000" stroke-width="0.4" paint-order="fill" stroke-opacity="1" stroke-dasharray="" stroke-linecap="butt" stroke-linejoin="miter" stroke-miterlimit="10" clip-path="none"/>
<path d="M -5 -5 L 75.4414 -5 L 75.4414 115 L -5 115 L -5 -5 Z" fill="rgba(255,255,255,0)" fill-opacity="0" stroke="#ccc" stroke-width="0" paint-order="fill" stroke-opacity="1" stroke-dasharray="" stroke-linecap="butt" stroke-linejoin="miter" stroke-miterlimit="10" transform="matrix(1,0,0,1,5,418)" clip-path="none"/>
<path d="M 3.5 0 L 16.5 0 A 3.5 3.5 0 0 1 20 3.5 L 20 10.5 A 3.5 3.5 0 0 1 16.5 14 L 3.5 14 A 3.5 3.5 0 0 1 0 10.5 L 0 3.5 A 3.5 3.5 0 0 1 3.5 0 Z" fill="#f5fc98" fill-opacity="1" stroke="none" transform="matrix(1,0,0,1,5,418)" clip-path="none"/>
<text transform="matrix(1,0,0,1,5,418)" fill="#333" fill-opacity="1" stroke="none" clip-path="none" style="font: 12px &quot;Microsoft YaHei&quot;;"><tspan dominant-baseline="middle" text-anchor="start" x="30" y="7">16 - 20</tspan></text>
<path d="M 3.5 0 L 16.5 0 A 3.5 3.5 0 0 1 20 3.5 L 20 10.5 A 3.5 3.5 0 0 1 16.5 14 L 3.5 14 A 3.5 3.5 0 0 1 0 10.5 L 0 3.5 A 3.5 3.5 0 0 1 3.5 0 Z" fill="#f6b9fd" fill-opacity="1" stroke="none" transform="matrix(1,0,0,1,5,442)" clip-path="none"/>
<text transform="matrix(1,0,0,1,5,442)" fill="#333" fill-opacity="1" stroke="none" clip-path="none" style="font: 12px &quot;Microsoft YaHei&quot;;"><tspan dominant-baseline="middle" text-anchor="start" x="30" y="7">12 - 16</tspan></text>
<path d="M 3.5 0 L 16.5 0 A 3.5 3.5 0 0 1 20 3.5 L 20 10.5 A 3.5 3.5 0 0 1 16.5 14 L 3.5 14 A 3.5 3.5 0 0 1 0 10.5 L 0 3.5 A 3.5 3.5 0 0 1 3.5 0 Z" fill="#7bea05" fill-opacity="1" stroke="none" transform="matrix(1,0,0,1,5,466)" clip-path="none"/>
<text transform="matrix(1,0,0,1,5,466)" fill="#333" fill-opacity="1" stroke="none" clip-path="none" style="font: 12px &quot;Microsoft YaHei&quot;;"><tspan dominant-baseline="middle" text-anchor="start" x="30" y="7">8 - 12</tspan></text>
<path d="M 3.5 0 L 16.5 0 A 3.5 3.5 0 0 1 20 3.5 L 20 10.5 A 3.5 3.5 0 0 1 16.5 14 L 3.5 14 A 3.5 3.5 0 0 1 0 10.5 L 0 3.5 A 3.5 3.5 0 0 1 3.5 0 Z" fill="#8cd5f7" fill-opacity="1" stroke="none" transform="matrix(1,0,0,1,5,490)" clip-path="none"/>
<text transform="matrix(1,0,0,1,5,490)" fill="#333" fill-opacity="1" stroke="none" clip-path="none" style="font: 12px &quot;Microsoft YaHei&quot;;"><tspan dominant-baseline="middle" text-anchor="start" x="30" y="7">4 - 8</tspan></text>
<path d="M 3.5 0 L 16.5 0 A 3.5 3.5 0 0 1 20 3.5 L 20 10.5 A 3.5 3.5 0 0 1 16.5 14 L 3.5 14 A 3.5 3.5 0 0 1 0 10.5 L 0 3.5 A 3.5 3.5 0 0 1 3.5 0 Z" fill="#f4c0c7" fill-opacity="1" stroke="none" transform="matrix(1,0,0,1,5,514)" clip-path="none"/>
<text transform="matrix(1,0,0,1,5,514)" fill="#333" fill-opacity="1" stroke="none" clip-path="none" style="font: 12px &quot;Microsoft YaHei&quot;;"><tspan dominant-baseline="middle" text-anchor="start" x="30" y="7">0 - 4</tspan></text>
<path d="M -5 -5 L 5 -5 L 5 5 L -5 5 L -5 -5 Z" fill="none" fill-opacity="1" stroke="#ccc" stroke-width="0" paint-order="fill" stroke-opacity="1" stroke-dasharray="" stroke-linecap="butt" stroke-linejoin="miter" stroke-miterlimit="10" transform="matrix(1,0,0,1,795,266.5)" clip-path="none"/>
<path fill="rgba(255,255,255,0)" fill-opacity="0" stroke="#ccc" stroke-width="0" paint-order="fill" stroke-opacity="1" stroke-dasharray="" stroke-linecap="butt" stroke-linejoin="miter" stroke-miterlimit="10" transform="matrix(1,0,0,1,15,10)" clip-path="none"/><defs><filter id="f1" x="-100%" y="-100%" width="1000%" height="1000%"><feOffset result="offOut" in="SourceGraphic" dx="-9.799999999999999" dy="9.799999999999999"></feOffset><feColorMatrix result="matrixOut" in="offOut" type="matrix" values="0.2 0 0 0 0 0 0.2 0 0 0 0 0 0.2 0 0 0 0 0 1 0"></feColorMatrix><feGaussianBlur result="blurOut" in="matrixOut" stdDeviation="8"></feGaussianBlur><feBlend in="SourceGraphic" in2="blurOut" mode="normal"></feBlend></filter></defs>
<text transform="matrix(1 0 0 1 210.7316 251.6184)" style="font-family:'Tahoma'; font-size:13px;" class="maplabels1">Jamalpur</text>
<text transform="matrix(1 0 0 1 355.1963 308.5939)" style="font-family:'Tahoma'; font-size:13px;" class="maplabels1">Mymensingh</text>
<text transform="matrix(1 0 0 1 478.355 259.0546)" style="font-family:'Tahoma'; font-size:13px;" class="maplabels1">Netrakona</text>
<text transform="matrix(1 0 0 1 279.6091 182.7167)" style="font-family:'Tahoma'; font-size:13px;" class="maplabels1">Sherpur</text>
<text x="643" y="519.33333333333" font-size="11">Created with paintmaps.com</text>
</svg>